<svg xmlns="http://www.w3.org/2000/svg" width="195" height="75" viewBox="0 0 195 75">
  <g id="Group_297" data-name="Group 297" transform="translate(-455 -543)">
    <g id="Group_38" data-name="Group 38">
      <g id="Group_23" data-name="Group 23" transform="translate(19 31)">
        <rect id="Rectangle_17957" data-name="Rectangle 17957" width="195" height="75" rx="22" transform="translate(436 512)" fill="#030a19"/>
        <text id="iOS_App" data-name="iOS App" transform="translate(508 531)" fill="#fff" font-size="14" font-family="SegoeUI, Segoe UI"><tspan x="0" y="15">iOS App</tspan></text>
        <text id="Apple_Store" data-name="Apple Store" transform="translate(508 550)" fill="#fff" font-size="16" font-family="SegoeUI, Segoe UI"><tspan x="0" y="17">Apple Store</tspan></text>
        <path id="Path_68716" data-name="Path 68716" d="M56.288,147.013c-5.619-.032-10.266-11.5-10.266-17.343,0-9.542,7.158-11.631,9.916-11.631a11.411,11.411,0,0,1,3.741.92,8.363,8.363,0,0,0,2.136.612,6.648,6.648,0,0,0,1.533-.5,12.284,12.284,0,0,1,4.62-1.117h.011a9.469,9.469,0,0,1,7.924,4l.578.868-.832.628a7,7,0,0,0-3.356,5.771,6.514,6.514,0,0,0,3.635,6.022c.521.313,1.06.636,1.06,1.343,0,.461-3.681,10.365-9.026,10.365a7.259,7.259,0,0,1-3.048-.74,6.181,6.181,0,0,0-2.713-.653,6.978,6.978,0,0,0-2.148.581,10.523,10.523,0,0,1-3.726.869Z" transform="translate(417.978 422.041)" fill="#ebebeb"/>
        <path id="Path_68717" data-name="Path 68717" d="M262.247,0c.139,5.02-3.451,8.5-7.036,8.284C254.62,4.278,258.8,0,262.247,0Z" transform="translate(223.846 531.301)" fill="#ebebeb"/>
      </g>
    </g>
  </g>
</svg>
