<svg xmlns="http://www.w3.org/2000/svg" width="328.049" height="304" viewBox="0 0 328.049 304">
  <g id="Group_16260" data-name="Group 16260" transform="translate(-7.999 -26.18)">
    <path id="Path_74113" data-name="Path 74113" d="M38.07,26.18H210.2a30.159,30.159,0,0,1,30.071,30.071v219.83A30.159,30.159,0,0,1,210.2,306.151H38.07A30.159,30.159,0,0,1,8,276.081V56.251A30.159,30.159,0,0,1,38.07,26.18Z" transform="translate(0 0)" fill="#60b0e6" fill-rule="evenodd"/>
    <path id="Path_74114" data-name="Path 74114" d="M287.672,26.18H304.9a30.159,30.159,0,0,1,30.071,30.071V276.081A30.158,30.158,0,0,1,304.9,306.151h-17.23a30.159,30.159,0,0,0,30.071-30.071V56.251A30.159,30.159,0,0,0,287.672,26.18Z" transform="translate(-94.701 0)" fill="#4671b6" fill-rule="evenodd"/>
    <path id="Path_74115" data-name="Path 74115" d="M65.082,91.44H217.165a6.926,6.926,0,0,1,6.913,6.913v27.133a6.926,6.926,0,0,1-6.913,6.913H65.082a6.926,6.926,0,0,1-6.913-6.913V98.353a6.926,6.926,0,0,1,6.913-6.913Z" transform="translate(-16.988 -22.098)" fill="#f5f6f8" fill-rule="evenodd"/>
    <path id="Path_74116" data-name="Path 74116" d="M215.463,91.44h1.7a6.926,6.926,0,0,1,6.913,6.913v27.133a6.926,6.926,0,0,1-6.913,6.913H65.082a6.926,6.926,0,0,1-6.913-6.913v-1.7H208.55a6.926,6.926,0,0,0,6.913-6.913Z" transform="translate(-16.988 -22.098)" fill="#e3e3e3" fill-rule="evenodd"/>
    <path id="Path_74117" data-name="Path 74117" d="M74.685,203.147h25.837a6.926,6.926,0,0,1,6.913,6.913v8.987a6.926,6.926,0,0,1-6.913,6.913H74.685a6.926,6.926,0,0,1-6.913-6.913V210.06A6.926,6.926,0,0,1,74.685,203.147ZM188.229,300.1h25.837a6.926,6.926,0,0,1,6.913,6.913V316a6.926,6.926,0,0,1-6.913,6.913H188.229A6.926,6.926,0,0,1,181.316,316v-8.987A6.926,6.926,0,0,1,188.229,300.1Zm-56.773,0h25.837a6.926,6.926,0,0,1,6.913,6.913V316a6.926,6.926,0,0,1-6.913,6.913H131.456A6.926,6.926,0,0,1,124.543,316v-8.987A6.927,6.927,0,0,1,131.456,300.1Zm-56.771,0h25.837a6.926,6.926,0,0,1,6.913,6.913V316a6.926,6.926,0,0,1-6.913,6.913H74.685A6.926,6.926,0,0,1,67.772,316v-8.987a6.926,6.926,0,0,1,6.913-6.913Zm113.544-48.476h25.837a6.926,6.926,0,0,1,6.913,6.913v8.987a6.926,6.926,0,0,1-6.913,6.913H188.229a6.926,6.926,0,0,1-6.913-6.913v-8.987A6.926,6.926,0,0,1,188.229,251.624Zm-56.773,0h25.837a6.926,6.926,0,0,1,6.913,6.913v8.987a6.926,6.926,0,0,1-6.913,6.913H131.456a6.926,6.926,0,0,1-6.913-6.913v-8.987A6.927,6.927,0,0,1,131.456,251.624Zm-56.771,0h25.837a6.926,6.926,0,0,1,6.913,6.913v8.987a6.926,6.926,0,0,1-6.913,6.913H74.685a6.926,6.926,0,0,1-6.913-6.913v-8.987a6.926,6.926,0,0,1,6.913-6.913Zm113.544-48.477h25.837a6.926,6.926,0,0,1,6.913,6.913v8.987a6.926,6.926,0,0,1-6.913,6.913H188.229a6.926,6.926,0,0,1-6.913-6.913V210.06A6.926,6.926,0,0,1,188.229,203.147Zm-56.773,0h25.837a6.926,6.926,0,0,1,6.913,6.913v8.987a6.926,6.926,0,0,1-6.913,6.913H131.456a6.926,6.926,0,0,1-6.913-6.913V210.06A6.927,6.927,0,0,1,131.456,203.147Z" transform="translate(-20.24 -59.924)" fill="#eceff1" fill-rule="evenodd"/>
    <path id="Path_74118" data-name="Path 74118" d="M101.868,203.3a6.931,6.931,0,0,1,5.758,6.816V219.1a6.926,6.926,0,0,1-6.913,6.913H74.876a6.93,6.93,0,0,1-6.539-4.675,6.922,6.922,0,0,0,1.155.1H95.329a6.926,6.926,0,0,0,6.913-6.913v-8.987a6.873,6.873,0,0,0-.374-2.238Zm113.544,96.953a6.93,6.93,0,0,1,5.758,6.816v8.987a6.926,6.926,0,0,1-6.913,6.913H188.42a6.93,6.93,0,0,1-6.539-4.674,6.925,6.925,0,0,0,1.155.1h25.837a6.926,6.926,0,0,0,6.913-6.913v-8.988A6.876,6.876,0,0,0,215.412,300.248Zm-56.772,0a6.93,6.93,0,0,1,5.757,6.816v8.987a6.926,6.926,0,0,1-6.913,6.913H131.648a6.931,6.931,0,0,1-6.539-4.674,6.925,6.925,0,0,0,1.155.1H152.1a6.926,6.926,0,0,0,6.913-6.913v-8.988a6.858,6.858,0,0,0-.373-2.238Zm-56.772,0a6.93,6.93,0,0,1,5.758,6.816v8.987a6.926,6.926,0,0,1-6.913,6.913H74.876a6.93,6.93,0,0,1-6.539-4.674,6.925,6.925,0,0,0,1.155.1H95.329a6.926,6.926,0,0,0,6.913-6.913v-8.988A6.875,6.875,0,0,0,101.868,300.248Zm113.544-48.477a6.93,6.93,0,0,1,5.758,6.816v8.987a6.926,6.926,0,0,1-6.913,6.913H188.42a6.93,6.93,0,0,1-6.539-4.674,6.922,6.922,0,0,0,1.155.1h25.837A6.926,6.926,0,0,0,215.786,263v-8.988a6.876,6.876,0,0,0-.374-2.238Zm-56.772,0a6.93,6.93,0,0,1,5.757,6.816v8.987a6.926,6.926,0,0,1-6.913,6.913H131.648a6.93,6.93,0,0,1-6.539-4.674,6.922,6.922,0,0,0,1.155.1H152.1A6.926,6.926,0,0,0,159.013,263v-8.988a6.858,6.858,0,0,0-.373-2.238Zm-56.772,0a6.93,6.93,0,0,1,5.758,6.816v8.987a6.926,6.926,0,0,1-6.913,6.913H74.876a6.93,6.93,0,0,1-6.539-4.674,6.922,6.922,0,0,0,1.155.1H95.329A6.926,6.926,0,0,0,102.242,263v-8.988a6.876,6.876,0,0,0-.374-2.238ZM215.412,203.3a6.93,6.93,0,0,1,5.758,6.816V219.1a6.926,6.926,0,0,1-6.913,6.913H188.42a6.93,6.93,0,0,1-6.539-4.675,6.922,6.922,0,0,0,1.155.1h25.837a6.926,6.926,0,0,0,6.913-6.913v-8.987a6.873,6.873,0,0,0-.374-2.238Zm-56.772,0a6.93,6.93,0,0,1,5.757,6.816V219.1a6.926,6.926,0,0,1-6.913,6.913H131.648a6.931,6.931,0,0,1-6.539-4.675,6.922,6.922,0,0,0,1.155.1H152.1a6.926,6.926,0,0,0,6.913-6.913v-8.987a6.855,6.855,0,0,0-.373-2.238Z" transform="translate(-20.431 -59.974)" fill="#d1d1d6" fill-rule="evenodd"/>
    <path id="Path_74119" data-name="Path 74119" d="M433.558,244.79A13.478,13.478,0,0,1,447,258.228v9.866a13.478,13.478,0,0,1-13.439,13.439A13.478,13.478,0,0,1,447,294.972v9.866a13.478,13.478,0,0,1-13.439,13.439A13.478,13.478,0,0,1,447,331.715v9.866a13.478,13.478,0,0,1-13.439,13.439A13.478,13.478,0,0,1,447,368.458v9.866a13.478,13.478,0,0,1-13.439,13.439H349.093a13.478,13.478,0,0,1-13.438-13.439v-9.866a13.478,13.478,0,0,1,13.438-13.439,13.478,13.478,0,0,1-13.438-13.439v-9.866a13.478,13.478,0,0,1,13.438-13.439,13.478,13.478,0,0,1-13.438-13.439v-9.866a13.478,13.478,0,0,1,13.438-13.439,13.478,13.478,0,0,1-13.438-13.439v-9.866a13.477,13.477,0,0,1,13.438-13.438,13.478,13.478,0,0,1-13.438-13.439v-9.866a13.478,13.478,0,0,1,13.438-13.439h84.465A13.478,13.478,0,0,1,447,221.486v9.866a13.478,13.478,0,0,1-13.439,13.439Z" transform="translate(-110.949 -61.583)" fill="#ffd064" fill-rule="evenodd"/>
    <path id="Path_74120" data-name="Path 74120" d="M480.3,244.79a13.478,13.478,0,0,1,13.439,13.438v9.866A13.478,13.478,0,0,1,480.3,281.533a13.478,13.478,0,0,1,13.439,13.439v9.866A13.478,13.478,0,0,1,480.3,318.276a13.478,13.478,0,0,1,13.439,13.439v9.866A13.478,13.478,0,0,1,480.3,355.02a13.478,13.478,0,0,1,13.439,13.439v9.866A13.478,13.478,0,0,1,480.3,391.763h-6.614a13.478,13.478,0,0,0,13.439-13.439v-9.866a13.478,13.478,0,0,0-13.439-13.439,13.478,13.478,0,0,0,13.439-13.439v-9.866a13.478,13.478,0,0,0-13.439-13.439,13.478,13.478,0,0,0,13.439-13.439v-9.866a13.478,13.478,0,0,0-13.439-13.439,13.478,13.478,0,0,0,13.439-13.439v-9.866a13.478,13.478,0,0,0-13.439-13.438,13.478,13.478,0,0,0,13.439-13.439v-9.866a13.478,13.478,0,0,0-13.439-13.439H480.3a13.478,13.478,0,0,1,13.439,13.439v9.866A13.478,13.478,0,0,1,480.3,244.79Z" transform="translate(-157.687 -61.583)" fill="#ffc338" fill-rule="evenodd"/>
    <path id="Path_74121" data-name="Path 74121" d="M349.093,244.79h84.465A13.478,13.478,0,0,0,447,231.352v-9.866a13.478,13.478,0,0,0-13.439-13.439H349.093a13.478,13.478,0,0,0-13.438,13.439v9.866A13.478,13.478,0,0,0,349.093,244.79Zm0,146.972h84.465A13.478,13.478,0,0,0,447,378.323v-9.866a13.478,13.478,0,0,0-13.439-13.439H349.093a13.478,13.478,0,0,0-13.438,13.439v9.866A13.478,13.478,0,0,0,349.093,391.762Zm0-73.486h84.465A13.478,13.478,0,0,0,447,304.837v-9.866a13.478,13.478,0,0,0-13.439-13.439H349.093a13.478,13.478,0,0,0-13.438,13.439v9.866A13.478,13.478,0,0,0,349.093,318.276Z" transform="translate(-110.949 -61.583)" fill="#ffe177" fill-rule="evenodd"/>
    <path id="Path_74122" data-name="Path 74122" d="M473.682,244.79H480.3a13.478,13.478,0,0,0,13.439-13.439v-9.866A13.478,13.478,0,0,0,480.3,208.047h-6.614a13.478,13.478,0,0,1,13.439,13.439v9.866A13.478,13.478,0,0,1,473.682,244.79Zm0,146.972H480.3a13.478,13.478,0,0,0,13.439-13.439v-9.866A13.478,13.478,0,0,0,480.3,355.019h-6.614a13.478,13.478,0,0,1,13.439,13.439v9.866A13.478,13.478,0,0,1,473.682,391.762Zm0-73.486H480.3a13.478,13.478,0,0,0,13.439-13.439v-9.866A13.478,13.478,0,0,0,480.3,281.533h-6.614a13.478,13.478,0,0,1,13.439,13.439v9.866A13.478,13.478,0,0,1,473.682,318.276Z" transform="translate(-157.687 -61.583)" fill="#ffd064" fill-rule="evenodd"/>
  </g>
</svg>
