<svg xmlns="http://www.w3.org/2000/svg" width="188.373" height="149.363" viewBox="0 0 188.373 149.363">
  <g id="Group_16417" data-name="Group 16417" transform="translate(605.75 -814.362)">
    <path id="Path_74193" data-name="Path 74193" d="M-578.758,822.362h13.188" transform="translate(148.193 41.954)" fill="none" stroke="#373449" stroke-width="1"/>
    <rect id="Rectangle_20657" data-name="Rectangle 20657" width="59.345" height="46.157" rx="0.5" transform="translate(-592.115 841.238)" fill="#6fac43" stroke="#373449" stroke-width="1"/>
    <rect id="Rectangle_20658" data-name="Rectangle 20658" width="13.188" height="19.782" transform="translate(-605.25 854.425)" fill="#f68912" stroke="#373449" stroke-linecap="round" stroke-linejoin="round" stroke-width="1"/>
    <rect id="Rectangle_20659" data-name="Rectangle 20659" width="32.969" height="13.188" transform="translate(-578.927 887.395)" fill="none" stroke="#373449" stroke-width="1"/>
    <path id="Path_74194" data-name="Path 74194" d="M-586.57,827.866v55.428c0,3.983-2.941,7.188-6.594,7.188a6.894,6.894,0,0,1-6.594-7.187V827.866Z" transform="translate(30.722 72.743)" fill="#f68912" stroke="#373449" stroke-width="1"/>
    <path id="Path_74195" data-name="Path 74195" d="M-566.788,820.862h-32.97m32.97,19.782h-32.97" transform="translate(30.722 33.563)" fill="none" stroke="#373449" stroke-width="1"/>
    <path id="Path_74196" data-name="Path 74196" d="M-594.258,841.738l59.345-26.376v92.314L-594.258,881.3Z" transform="translate(61.488 2.797)" fill="#f68912" stroke="#373449" stroke-linecap="round" stroke-linejoin="round" stroke-width="1"/>
    <path id="Path_74197" data-name="Path 74197" d="M-583.256,820.194a16.485,16.485,0,0,1,16.933,6.91,16.485,16.485,0,0,1,.132,18.291,16.486,16.486,0,0,1-16.841,7.147" transform="translate(123.032 27.974)" fill="#6fac43" stroke="#373449" stroke-linecap="round" stroke-linejoin="round" stroke-width="1"/>
    <rect id="Rectangle_20660" data-name="Rectangle 20660" width="13.188" height="98.908" rx="1" transform="translate(-473.425 814.862)" fill="none" stroke="#373449" stroke-linecap="round" stroke-linejoin="round" stroke-width="1"/>
    <path id="Path_74198" data-name="Path 74198" d="M-478.27,828.145l9.324-9.318m-9.324,37.3,9.324,9.324M-597.758,891.59h13.188v19.782h-13.188V891.59" transform="translate(41.909 22.18)" fill="none" stroke="#373449" stroke-width="1"/>
  </g>
</svg>
