<svg xmlns="http://www.w3.org/2000/svg" width="44.066" height="44.066" viewBox="0 0 44.066 44.066">
  <g id="Group_16297" data-name="Group 16297" transform="translate(-1 -1)">
    <path id="Path_74127" data-name="Path 74127" d="M35.846,14.748H6.469a1.469,1.469,0,0,1-.749-2.732L20.408,3.2a1.469,1.469,0,0,1,1.469,0l14.689,8.813a1.469,1.469,0,0,1-.72,2.732ZM11.771,11.81H30.544L21.158,6.185Z" transform="translate(1.876 0.941)" fill="#c9c1f5"/>
    <path id="Path_74128" data-name="Path 74128" d="M7.61,10.8h2.938l7.917-4.744L17,5.17Z" transform="translate(3.099 1.955)" fill="#b0aae8"/>
    <path id="Path_74129" data-name="Path 74129" d="M31.907,12.016,17.218,3.2a1.469,1.469,0,0,0-1.469,0L15,3.629l13.969,8.387a1.469,1.469,0,0,1-.749,2.732h2.938a1.469,1.469,0,0,0,.749-2.732Z" transform="translate(6.564 0.941)" fill="#b0aae8"/>
    <rect id="Rectangle_20636" data-name="Rectangle 20636" width="44" height="33" rx="3" transform="translate(1 12)" fill="#91e085"/>
    <path id="Path_74130" data-name="Path 74130" d="M42.821,9.45a4.407,4.407,0,0,1,.455,1.91v23.5a4.407,4.407,0,0,1-4.407,4.407H3.616a4.407,4.407,0,0,1-2.306-.661,4.407,4.407,0,0,0,3.951,2.5H40.514A4.407,4.407,0,0,0,44.921,36.7V13.2a4.407,4.407,0,0,0-2.1-3.746Z" transform="translate(0.145 3.962)" fill="#6ec45f"/>
    <rect id="Rectangle_20637" data-name="Rectangle 20637" width="32" height="20" rx="2" transform="translate(7 19)" fill="#eef5fd"/>
    <path id="Path_74131" data-name="Path 74131" d="M35.326,13.13a2.938,2.938,0,0,1,.264,1.19V29.009a2.938,2.938,0,0,1-2.938,2.938H6.213a2.747,2.747,0,0,1-1.043-.206A2.938,2.938,0,0,0,7.858,33.5H34.3a2.938,2.938,0,0,0,2.938-2.938V15.877A2.938,2.938,0,0,0,35.326,13.13Z" transform="translate(1.955 5.688)" fill="#dce9f4"/>
    <ellipse id="Ellipse_31" data-name="Ellipse 31" cx="4" cy="4.5" rx="4" ry="4.5" transform="translate(19 1)" fill="#d6b5b0"/>
    <path id="Path_74132" data-name="Path 74132" d="M18.505,1.2a4.319,4.319,0,0,1,1.16,2.938A4.407,4.407,0,0,1,13.79,8.251,4.407,4.407,0,1,0,18.505,1.2Z" transform="translate(5.997 0.094)" fill="#c4a19d"/>
    <path id="Path_74133" data-name="Path 74133" d="M26.158,16.5H11.469A1.469,1.469,0,0,0,10,17.969a8.813,8.813,0,0,0,17.627,0A1.469,1.469,0,0,0,26.158,16.5Z" transform="translate(4.22 7.268)" fill="#d6b5b0"/>
    <path id="Path_74134" data-name="Path 74134" d="M25.014,16.51a1.381,1.381,0,0,1,.22.72,8.813,8.813,0,0,1-8.813,8.813,8.622,8.622,0,0,1-3.981-.969,8.666,8.666,0,0,0,5.229,1.7,8.813,8.813,0,0,0,8.813-8.813A1.469,1.469,0,0,0,25.014,16.51Z" transform="translate(5.364 7.272)" fill="#c4a19d"/>
    <path id="Path_74135" data-name="Path 74135" d="M28.1,24.438H10.469a1.469,1.469,0,0,1,0-2.938H28.1a1.469,1.469,0,1,1,0,2.938Z" transform="translate(3.751 9.612)" fill="#c9c1f5"/>
    <path id="Path_74136" data-name="Path 74136" d="M28.518,21.56a1.447,1.447,0,0,1-1.366,1.983H9.525a1.2,1.2,0,0,1-.455-.1,1.469,1.469,0,0,0,1.366.969H28.063a1.46,1.46,0,0,0,.455-2.85Z" transform="translate(3.784 9.64)" fill="#b0aae8"/>
  </g>
</svg>
