<svg xmlns="http://www.w3.org/2000/svg" width="38.317" height="40.917" viewBox="0 0 38.317 40.917">
  <g id="Group_16299" data-name="Group 16299" transform="translate(-1.017)">
    <path id="Path_74153" data-name="Path 74153" d="M28.454,29.4l3.7,6.393H35.1l-3.7-6.393-1.47-2.557L23.723,16.09l-2.212,1.279,5.473,9.475H11.869l5.473-9.475L15.13,16.09,8.916,26.844,7.445,29.4l-3.7,6.393H6.7L10.4,29.4Z" transform="translate(0.762 4.484)" fill="#bc9a7e"/>
    <path id="Path_74154" data-name="Path 74154" d="M5.057,2.5H34.466a2.557,2.557,0,0,1,2.557,2.557v17.9H2.5V5.057A2.557,2.557,0,0,1,5.057,2.5Z" transform="translate(0.413 0.697)" fill="#e0e0e2"/>
    <rect id="Rectangle_20645" data-name="Rectangle 20645" width="37.081" height="2.557" rx="1" transform="translate(1.635 23.655)" fill="#afaeb3"/>
    <circle id="Ellipse_32" data-name="Ellipse 32" cx="2.557" cy="2.557" r="2.557" transform="translate(20.814 7.033)" fill="#f8a839"/>
    <path id="Path_74155" data-name="Path 74155" d="M27.087,21.4H2.5V17.83l9.192-9.192a1.862,1.862,0,0,1,2.633,0Z" transform="translate(0.413 2.255)" fill="#55bb8c"/>
    <path id="Path_74156" data-name="Path 74156" d="M33.558,20.739H14.937l9.6-9.6a2.3,2.3,0,0,1,3.257,0L33.558,16.9Z" transform="translate(3.879 2.916)" fill="#55bb8c"/>
    <path id="Path_74157" data-name="Path 74157" d="M38.076,23.133V5.754a3.2,3.2,0,0,0-3.2-3.2H25.29V1.918A1.918,1.918,0,0,0,23.372,0H16.979a1.918,1.918,0,0,0-1.918,1.918v.639H5.471a3.2,3.2,0,0,0-3.2,3.2v17.38a1.918,1.918,0,0,0,.639,3.718h8.61L3.958,39.958a.639.639,0,0,0,.554.959H7.465a.639.639,0,0,0,.554-.32l3.51-6.074H28.847l3.51,6.074a.639.639,0,0,0,.554.32h2.954a.639.639,0,0,0,.554-.959L28.851,26.852h8.586a1.918,1.918,0,0,0,.639-3.718ZM16.339,1.918a.639.639,0,0,1,.639-.639h6.393a.639.639,0,0,1,.639.639v.639H16.339ZM3.553,5.754A1.918,1.918,0,0,1,5.471,3.836H34.88A1.918,1.918,0,0,1,36.8,5.754V18.276L32.123,13.6a2.96,2.96,0,0,0-4.165,0l-4.805,4.8-7.965-7.963a2.557,2.557,0,0,0-3.538,0l-8.1,8.1ZM36.8,20.084v2.932H27.765l-3.708-3.708,4.8-4.8a1.678,1.678,0,0,1,2.359,0Zm-33.245.267,9-9a1.253,1.253,0,0,1,1.73,0L25.956,23.016H3.553Zm31.2,19.287H33.279l-3.514-6.074a.639.639,0,0,0-.55-.32H11.161a.639.639,0,0,0-.554.32L7.1,39.638H5.619L13,26.852h1.478l-2.4,4.156a.639.639,0,0,0,.554.959H27.745a.639.639,0,0,0,.554-.959l-2.4-4.156h1.478Zm-18.8-12.787h8.47l2.215,3.836h-12.9Zm21.481-1.279H2.913a.639.639,0,0,1,0-1.279H37.437a.639.639,0,0,1,0,1.279ZM23.372,12.787a3.2,3.2,0,1,0-3.2-3.2A3.2,3.2,0,0,0,23.372,12.787Zm0-5.115A1.918,1.918,0,1,1,21.454,9.59,1.918,1.918,0,0,1,23.372,7.672Z"/>
  </g>
</svg>
