<svg xmlns="http://www.w3.org/2000/svg" width="42.066" height="41.45" viewBox="0 0 42.066 41.45">
  <g id="Group_16298" data-name="Group 16298" transform="translate(0 -7.5)">
    <path id="Path_74137" data-name="Path 74137" d="M114.195,120.5h2.711v4.93h-2.711Zm20.59,0H137.5v4.93h-2.711Z" transform="translate(-104.813 -103.716)" fill="#eee"/>
    <rect id="Rectangle_20638" data-name="Rectangle 20638" width="28.674" height="10.517" rx="5.258" transform="translate(6.696 7.5)" fill="#f66"/>
    <path id="Path_74138" data-name="Path 74138" d="M387.965,7.5H385.5a1.232,1.232,0,0,1,1.232,1.232v8.052a1.232,1.232,0,0,1-1.232,1.232h2.465a1.232,1.232,0,0,0,1.232-1.232V8.732A1.232,1.232,0,0,0,387.965,7.5Z" transform="translate(-353.827)" fill="#ff4e4e"/>
    <path id="Path_74139" data-name="Path 74139" d="M118.348,39.224l.688,1.394a.247.247,0,0,0,.186.135l1.538.223a.246.246,0,0,1,.137.42l-1.113,1.085a.247.247,0,0,0-.071.218l.263,1.532a.246.246,0,0,1-.358.26l-1.376-.723a.246.246,0,0,0-.229,0l-1.376.723a.246.246,0,0,1-.358-.26l.263-1.532a.247.247,0,0,0-.071-.218L115.359,41.4a.246.246,0,0,1,.137-.42l1.538-.223a.246.246,0,0,0,.186-.135l.688-1.394a.246.246,0,0,1,.442,0Zm8.718,0,.688,1.394a.246.246,0,0,0,.186.135l1.538.223a.246.246,0,0,1,.137.42L128.5,42.482a.246.246,0,0,0-.071.218l.263,1.532a.246.246,0,0,1-.358.26l-1.376-.723a.246.246,0,0,0-.229,0l-1.376.723a.246.246,0,0,1-.358-.26l.263-1.532a.246.246,0,0,0-.071-.218L124.076,41.4a.246.246,0,0,1,.137-.42l1.538-.223a.246.246,0,0,0,.186-.135l.688-1.394a.246.246,0,0,1,.442,0Zm8.718.041.688,1.394a.246.246,0,0,0,.186.135l1.538.223a.246.246,0,0,1,.137.42l-1.113,1.085a.246.246,0,0,0-.071.218l.263,1.532a.246.246,0,0,1-.358.26l-1.376-.723a.246.246,0,0,0-.229,0l-1.376.723a.246.246,0,0,1-.358-.26l.263-1.532a.247.247,0,0,0-.071-.218l-1.113-1.085a.246.246,0,0,1,.137-.42l1.538-.223a.246.246,0,0,0,.186-.135l.688-1.394a.246.246,0,0,1,.442,0Z" transform="translate(-105.812 -28.992)" fill="#ffe966"/>
    <path id="Path_74140" data-name="Path 74140" d="M156.523,41.29a.247.247,0,0,0,.186-.135l.109-.22-.566.082a.247.247,0,0,0-.191.34Zm5.13.148a.246.246,0,0,0-.137-.42l-1.538-.223a.246.246,0,0,1-.186-.135l-.688-1.394a.246.246,0,0,0-.442,0l-.535,1.083.4.806a.246.246,0,0,0,.186.135l1.538.223a.246.246,0,0,1,.137.42l-1.113,1.085a.247.247,0,0,0-.071.218l.128.747,1.044.549a.246.246,0,0,0,.358-.26l-.263-1.532a.246.246,0,0,1,.071-.218Zm-8.718-.041a.246.246,0,0,0-.137-.42l-1.538-.223a.247.247,0,0,1-.186-.135l-.688-1.394a.246.246,0,0,0-.442,0l-.535,1.083.4.806a.247.247,0,0,0,.186.135l1.538.223a.246.246,0,0,1,.137.42l-1.113,1.085a.247.247,0,0,0-.071.218l.128.747,1.044.549a.246.246,0,0,0,.358-.26l-.263-1.532a.246.246,0,0,1,.071-.218Zm-8.718,0a.246.246,0,0,0-.137-.42l-1.538-.223a.246.246,0,0,1-.186-.135l-.688-1.394a.246.246,0,0,0-.442,0l-.535,1.083.4.806a.246.246,0,0,0,.186.135l1.538.223a.246.246,0,0,1,.137.42l-1.113,1.085a.246.246,0,0,0-.071.218l.128.747,1.044.549a.246.246,0,0,0,.358-.26l-.263-1.532a.247.247,0,0,1,.071-.218Zm13.515,2.909a.246.246,0,0,0-.229,0l-.379.2a.243.243,0,0,0,.27.027l.385-.2Z" transform="translate(-129.133 -28.992)" fill="#ffe236"/>
    <path id="Path_74141" data-name="Path 74141" d="M22.5,195.5H60.869v25.388H22.5Z" transform="translate(-20.651 -172.554)" fill="#f2f2f2"/>
    <path id="Path_74142" data-name="Path 74142" d="M444.5,195.5h3.7v25.388h-3.7Z" transform="translate(-407.979 -172.554)" fill="#eee"/>
    <path id="Path_74143" data-name="Path 74143" d="M203.232,372.5h6.409a1.232,1.232,0,0,1,1.232,1.232v9.613H202v-9.613A1.232,1.232,0,0,1,203.232,372.5Z" transform="translate(-185.403 -335.011)" fill="#ffcd85"/>
    <path id="Path_74144" data-name="Path 74144" d="M253.7,372.5H250a1.232,1.232,0,0,1,1.232,1.232v9.613h3.7v-9.613A1.232,1.232,0,0,0,253.7,372.5Z" transform="translate(-229.46 -335.011)" fill="#ffc570"/>
    <rect id="Rectangle_20639" data-name="Rectangle 20639" width="40.834" height="2.465" rx="1.232" transform="translate(0.616 20.481)" fill="#676e87"/>
    <path id="Path_74145" data-name="Path 74145" d="M456.2,165.5h-3.7a.575.575,0,0,1,.575.575v1.315a.575.575,0,0,1-.575.575h3.7a.575.575,0,0,0,.575-.575v-1.315A.575.575,0,0,0,456.2,165.5Z" transform="translate(-415.322 -145.019)" fill="#595f74"/>
    <rect id="Rectangle_20640" data-name="Rectangle 20640" width="6.655" height="7.148" rx="3.328" transform="translate(5.546 26.644)" fill="#66c1ff"/>
    <rect id="Rectangle_20641" data-name="Rectangle 20641" width="6.655" height="7.148" rx="3.328" transform="translate(5.546 37.489)" fill="#66c1ff"/>
    <rect id="Rectangle_20642" data-name="Rectangle 20642" width="6.655" height="7.148" rx="3.328" transform="translate(29.866 26.644)" fill="#66c1ff"/>
    <rect id="Rectangle_20643" data-name="Rectangle 20643" width="6.655" height="7.148" rx="3.328" transform="translate(29.866 37.489)" fill="#66c1ff"/>
    <rect id="Rectangle_20644" data-name="Rectangle 20644" width="6.655" height="7.148" rx="3.328" transform="translate(17.706 26.644)" fill="#66c1ff"/>
    <path id="Path_74146" data-name="Path 74146" d="M100.5,240.5h1.232v7.148H100.5Z" transform="translate(-92.243 -213.857)" fill="#d9f0ff"/>
    <path id="Path_74147" data-name="Path 74147" d="M74.155,276.5v1.227l-.041,0H67.541l-.041,0V276.5l.041,0h6.573l.041,0Zm-3.944,7.885h1.232v7.148H70.211Z" transform="translate(-61.954 -246.899)" fill="#d9f0ff"/>
    <path id="Path_74148" data-name="Path 74148" d="M74.155,254.305v1.228l-.041,0H67.541l-.041,0v-1.228l.041,0h6.573l.041,0ZM82.412,240.5h1.232v7.148H82.412Z" transform="translate(-61.954 -213.857)" fill="#d9f0ff"/>
    <path id="Path_74149" data-name="Path 74149" d="M222.155,243.46v1.228l-.041,0h-6.573l-.041,0V243.46l.041,0h6.573l.041,0Zm8.257-2.96h1.232v7.148h-1.232Z" transform="translate(-197.794 -213.857)" fill="#d9f0ff"/>
    <path id="Path_74150" data-name="Path 74150" d="M370.155,276.5v1.227l-.041,0h-6.573l-.041,0V276.5l.041,0h6.573l.041,0Zm-3.9,7.885h1.232v7.148h-1.232Z" transform="translate(-333.634 -246.899)" fill="#d9f0ff"/>
    <path id="Path_74151" data-name="Path 74151" d="M370.155,408.5v1.227l-.041,0h-6.573l-.041,0V408.5l.041,0h6.573l.041,0Z" transform="translate(-333.634 -368.053)" fill="#d9f0ff"/>
    <path id="Path_74152" data-name="Path 74152" d="M41.45,498.232H.616a.616.616,0,0,1,0-1.232H41.45a.616.616,0,0,1,0,1.232Z" transform="translate(0 -449.282)" fill="#676e87"/>
  </g>
</svg>
