<svg xmlns="http://www.w3.org/2000/svg" width="50.202" height="22.753" viewBox="0 0 50.202 22.753">
  <path id="Path_74126" data-name="Path 74126" d="M24,48c2.9,2.29,4.727,2.652,8.691,0,3.644-2.243,7.569,0,7.569,0s4.766,2.8,9.251.28c3.878-2.484,8.41-.561,8.41-.561s7.569,3.364,10.653-.28M24,55.874c2.9,2.29,4.727,2.652,8.691,0,3.644-2.243,7.569,0,7.569,0s4.766,2.8,9.251.28c3.878-2.484,8.41-.561,8.41-.561s7.569,3.364,10.653-.28M24,63.752c2.9,2.29,4.727,2.652,8.691,0,3.644-2.243,7.569,0,7.569,0s4.766,2.8,9.251.28c3.878-2.484,8.41-.561,8.41-.561s7.569,3.364,10.653-.28" transform="translate(-21.191 -44.617)" fill="none" stroke="#5dddf9" stroke-linecap="round" stroke-width="4"/>
</svg>
