<svg xmlns="http://www.w3.org/2000/svg" viewBox="0 0 512 512"><path fill="#d1d1d6" fill-rule="evenodd" d="M178.057 357.834h155.886v82.951H178.057z" clip-rule="evenodd"/><path fill="#b1b1b5" fill-rule="evenodd" d="M256 357.834h77.943v82.951H256z" clip-rule="evenodd"/><path fill="#eceff1" fill-rule="evenodd" d="M46.131 30.438H465.87c20.972 0 38.131 17.159 38.131 38.131v262.32c0 20.972-17.159 38.131-38.131 38.131H46.131C25.159 369.019 8 351.86 8 330.888V68.569c0-20.972 17.159-38.131 38.131-38.131z" clip-rule="evenodd"/><path fill="#d1d1d6" fill-rule="evenodd" d="M256 30.438h209.87c20.972 0 38.131 17.159 38.131 38.131v262.32c0 20.972-17.159 38.131-38.131 38.131H256V30.438z" clip-rule="evenodd"/><path fill="#8ac9fe" fill-rule="evenodd" d="M45.174 62.324h421.652c2.909 0 5.288 2.38 5.288 5.288v237.177H39.886V67.612c0-2.909 2.379-5.288 5.288-5.288z" clip-rule="evenodd"/><path fill="#60b7ff" fill-rule="evenodd" d="M256 62.324h210.826c2.909 0 5.288 2.38 5.288 5.288v237.177H256V62.324z" clip-rule="evenodd"/><path fill="#eceff1" fill-rule="evenodd" d="M97.5 481.562h317c5.508 0 10-4.492 10-10v-15.981c0-14.289-14.632-25.981-32.517-25.981H120.017c-17.885 0-32.517 11.691-32.517 25.981v15.981c0 5.508 4.492 10 10 10z" clip-rule="evenodd"/><path fill="#d1d1d6" fill-rule="evenodd" d="M256 481.562h158.5c5.508 0 10-4.492 10-10v-15.981c0-14.289-14.632-25.981-32.517-25.981H256v51.962z" clip-rule="evenodd"/><path fill="#eceff1" fill-rule="evenodd" d="M306.404 130.681h104.501c5.508 0 10 4.492 10 10v12.251c0 5.508-4.492 10-10 10H306.404c-5.508 0-10-4.492-10-10v-12.251c0-5.508 4.493-10 10-10zm0 73.5h104.501c5.508 0 10 4.492 10 10v12.251c0 5.508-4.492 10-10 10H306.404c-5.508 0-10-4.492-10-10v-12.251c0-5.508 4.493-10 10-10z" clip-rule="evenodd"/><g fill-rule="evenodd" clip-rule="evenodd"><circle cx="172.785" cy="183.556" r="81.689" fill="#837683"/><path fill="#685e68" d="M172.785 265.246c45.116 0 81.689-36.573 81.689-81.689 0-45.116-36.574-81.689-81.689-81.689v163.378z"/><circle cx="172.785" cy="158.279" r="28.843" fill="#f6dccd" transform="rotate(-3.17 172.788 158.282)"/><path fill="#f1cbbc" d="M172.785 129.437c15.929 0 28.842 12.914 28.842 28.842 0 15.929-12.913 28.843-28.842 28.843v-57.685z"/><path fill="#ffe177" d="M172.785 191.434c-29.427 0-53.653 22.297-56.721 50.909 14.693 14.18 34.688 22.902 56.721 22.902 3.969 0 7.872-.283 11.69-.83 17.374-2.49 32.981-10.449 45.027-22.074-3.063-28.618-27.286-50.907-56.717-50.907z"/><path fill="#ffd064" d="M172.785 265.246c3.969 0 7.872-.283 11.69-.83 17.374-2.49 32.981-10.449 45.027-22.074-3.063-28.618-27.286-50.906-56.717-50.907v73.811z"/></g></svg>