<svg xmlns="http://www.w3.org/2000/svg" xmlns:xlink="http://www.w3.org/1999/xlink" width="296.551" height="182.883" viewBox="0 0 296.551 182.883">
  <defs>
    <clipPath id="clip-path">
      <path id="Path_74215" data-name="Path 74215" d="M887.211,576.107c-5.548,8.312-61.418,12.87-68.68,2.656-11.224-15.772,21.1-60.847,21.1-60.847-.417-2.154-.495-7.362,1.2-9.395,2.571-3.089-1.253-6.023,1.126-6.689,3.058-.853,5.508,2.035,10.835,3.48,3.156.847,2.715,9.131-.268,13.768a4.364,4.364,0,0,1-3.091,1.8s-12.469,30.683-9.821,36.56c3.285,7.269,18.923-1.1,42.952-4.492C894.057,551.319,890.268,571.525,887.211,576.107Z" transform="translate(-816.163 -501.678)" fill="none"/>
    </clipPath>
    <clipPath id="clip-path-2">
      <path id="Path_74225" data-name="Path 74225" d="M1187.756,901.473c1.422-26.833-8.01-50.187-7.151-65.527.55-9.731-3.663-24.174,12.33-26.514,13.712-2.006,30.657,1.618,34,5.308,6.762,7.444,4.307,47.8-2.12,53.308C1211.933,876.272,1197.818,893.257,1187.756,901.473Z" transform="translate(-1180.487 -808.86)" fill="none"/>
    </clipPath>
    <clipPath id="clip-path-3">
      <path id="Path_74228" data-name="Path 74228" d="M1002.384,843.462c9.218,3.891,27.989,56.854,17.2,66.721s-81.928-7.515-81.928-7.515c-2.038.814-7.126,1.868-9.454.581-3.5-1.944-1.347-6.285-2.448-8.5-1.412-2.843-11.5,3.554-11.089-1.953.253-3.257,16.6-5.079,21.715-3.016a4.358,4.358,0,0,1,2.356,2.7s50.668,4.693,55.943.988c6.524-4.59-9.828-21.139-7.284-39.845C988.96,842.132,997.322,841.321,1002.384,843.462Z" transform="translate(-914.652 -842.526)" fill="none"/>
    </clipPath>
    <clipPath id="clip-path-4">
      <path id="Path_74231" data-name="Path 74231" d="M1253.475,655.058s5.407-4,4.146-8.21c-.323-1.105-2.764,2.01-4.964.661-3.005-1.855-3.73-12.543-.335-18.1,2.106-3.447,9.512-5.514,11.927-3.166s3.367,12.356,2.536,17.256c-1.315,7.817,5.81,12.519,5.81,12.519s-11.834,9.471-14.812,17.332C1256.91,675.654,1253.475,655.058,1253.475,655.058Z" transform="translate(-1250.073 -625.236)" fill="none"/>
    </clipPath>
  </defs>
  <g id="Group_16446" data-name="Group 16446" transform="translate(-80.572 -433.01)">
    <path id="Path_74209" data-name="Path 74209" d="M325.831,721.1c-42.673,2.9-88.288-31.588-88.288-73.566s67.638-24.09,89.579-57.408c52.571-79.775,158.7,48.6,121.392,62.925-74.76,28.688-20.319,61.073-122.683,68.049Z" transform="translate(-131.656 -110.02)" fill="#f0eff4" fill-rule="evenodd"/>
    <path id="Path_74210" data-name="Path 74210" d="M1138.094,585.3c.023.112.081.217.1.328a7.965,7.965,0,0,1,.184,2.679c-.3,1.959-1.668,3.858-.876,6.34.853,3.517,5.161,5.655,6.319,2.169.664-2.3-.466-5.106-1.731-7.649a29.217,29.217,0,0,0-2.426-3.905,9.684,9.684,0,0,0,2.906-.65c.2-.077.356-.148.552-.226.056.028.147.048.2.077a34.957,34.957,0,0,1,4.847-1.885c2.988-.86,6.773-1.721,7.056-4.919.03-1.015-.9-2.034-1.872-2.774a6.114,6.114,0,0,0-4.476-.942,7.055,7.055,0,0,0-5.54,3.922,13.146,13.146,0,0,0-1.1,4.095,7.535,7.535,0,0,0-.034,2.218,10.651,10.651,0,0,1-3.739.659.384.384,0,0,0-.2,0,10.112,10.112,0,0,1-1.433-.067c-.109-2.19.783-4.227,1.565-6.32a12.7,12.7,0,0,0,.691-2.541,8.469,8.469,0,0,0,2.115.359c1.325.088,2.452-.677,1.947-1.935-.9-1.684-4.034-2.5-5.731-2.828a17.346,17.346,0,0,0-4.369-.11,3.027,3.027,0,0,0-.594.078c.853-.827,1.67-1.648,2.467-2.5.712-.722,1.385-1.514,2.078-2.271a21.971,21.971,0,0,1,6.427,3c2.548,1.632,5.212,3.4,7.822,2.572,2.195-.781,2.079-3.551-.417-5.232a17.072,17.072,0,0,0-8.255-2.564,19.6,19.6,0,0,0-3.275.063c-.108.021-.235.007-.379.036l1.872-2c1.059-1.1,2.137-2.166,3.2-3.267.127.014.29.02.454.027.692.1.983.117,1.694.248,1.772.388,3.571.965,5.341,1.276a20.262,20.262,0,0,0,5.132.192,10.756,10.756,0,0,0,3.589-.784c1.862-.948,2.043-3.117-.61-4.651a12.955,12.955,0,0,0-7.535-1.348,10.07,10.07,0,0,0-2.1.452l-.509-.482.072-.014a35,35,0,0,1,4.752-1.984c2.178-.739,4.5-1.43,6.861-2.2a18.121,18.121,0,0,1,2.846,1.806c2.715,2.142,4.652,5.6,7.292,8.107,1.811,1.738,6.556,4.8,8.838,4.388,4.709-.849-4.245-7.581-6.376-9.179a53.093,53.093,0,0,0-7.744-4.643,21.777,21.777,0,0,0-2.729-1.169,93.723,93.723,0,0,0,9.073-3.454c.516-.218,1.012-.471,1.473-.717l.056.028c.349.125.754.278,1.123.438a15.519,15.519,0,0,1,2.033,1c4.7,2.76,7.631,7.574,12.736,10.138,2.148,1.129,4.857,1.836,6.572.839,2.832-2.419-3.44-6.925-6.325-8.8a32.083,32.083,0,0,0-8.64-3.536,27.5,27.5,0,0,0-4.509-.858,8.963,8.963,0,0,0-1.433-.067,50.865,50.865,0,0,0,9.859-6.751c.147.048.31.055.457.1a21.178,21.178,0,0,1,2.481.869,25.683,25.683,0,0,1,5.548,3.213c2.333,1.674,4.679,3.656,7.461,4.349a3.9,3.9,0,0,0,2.726-.188,1.654,1.654,0,0,0,.106-2.232,11.723,11.723,0,0,0-3.553-3.141,32.055,32.055,0,0,0-3.822-2.2,26.352,26.352,0,0,0-5.023-1.92,34.764,34.764,0,0,0-4.221-.914c.52-.568,1.039-1.135,1.539-1.738l.036-.007c2.159-1.2,4.693-2.088,6.135-4a4.308,4.308,0,0,0,1.024-2.8c.024-1.6-2.28-3-3.935-3.182a2.909,2.909,0,0,0-3.322,1.973c-.442,1.561-.042,3.344-.154,5a11.938,11.938,0,0,1-.3,2.309.26.26,0,0,0,.01.231c-.6.7-1.21,1.4-1.885,2.117a19.849,19.849,0,0,1-1.568,1.473,4.484,4.484,0,0,0-.412-3.371,3.613,3.613,0,0,0-2.225-1.7c-2.07-.562-2.642.908-1.8,2.487.632,1.272,2.019,2.822,1.966,3.725a5.192,5.192,0,0,1-.023.742.287.287,0,0,0-.007.273,42.945,42.945,0,0,1-4.612,3.158,6.024,6.024,0,0,0,.623-4.157,3.68,3.68,0,0,0-3.485-2.8,5.029,5.029,0,0,0-3.524,1.9c-1.755,1.781-2.048,4.747-2.718,6.9a13.712,13.712,0,0,1-1.328,2.9c-.048.126-.242.28-.216.469-4.1,1.506-8.305,2.76-12.593,4.147a38.719,38.719,0,0,0-5.323,2.173c.726-.841,1.415-1.675,2.085-2.544a2.812,2.812,0,0,0,2.119-.417c.542-.456.3-1.379-.39-1.979.356-.574.748-1.156,1.085-1.765,1.874,1.066,3.678,1.8,5.1,1.206,1.205-.625.282-2.344-.984-3.181a11.073,11.073,0,0,0-1.687-.948,13.714,13.714,0,0,1,1.976-1.242c3.083-1.616,6.757-2.532,9.4-4.645,1.333-1.038,2.826-2.147,3.189-3.848a2.372,2.372,0,0,0-.413-2.091c-2.17-2.094-5.119-.738-6.788.056a9.321,9.321,0,0,0-3.564,3.107,28.74,28.74,0,0,0-2.145,4.146,18.585,18.585,0,0,1-.961,1.7c.085-.133.151-.3.235-.434.631-1.365,1.151-2.787,1.671-4.208.072-.014.088-.056.16-.07a.231.231,0,0,0,.1-.175.5.5,0,0,0-.081-.217c.016-.042.032-.084.069-.091a.222.222,0,0,0,.248-.127c.935-2.318,3.86-6.423,1.58-9.426a1.691,1.691,0,0,0-1.123-.438,2.181,2.181,0,0,0-2,1.48,10.035,10.035,0,0,0-.3,6.3,17.305,17.305,0,0,0,.531,1.874c.078.14.085.294.2.426-.356.148-.693.33-1.048.478a19.416,19.416,0,0,1-.739-3.384c-.208-1.511-.435-3.91-2.223-5.109a1.239,1.239,0,0,0-1.649.4c-.752,1.079-.4,2.638.151,4.043a14.8,14.8,0,0,0,1.917,3.424,9.044,9.044,0,0,0,1.1,1.257l.02.035c-.548.3-1.1.6-1.591.934a37.228,37.228,0,0,0-5.021,4.208c-.157.147-.3.253-.454.4-.212-.307-.388-.622-.564-.936a23.334,23.334,0,0,1-1.474-3.2c-.709-1.839-1.707-4.9-4.089-6.448a1.387,1.387,0,0,0-1.93.186c-.526.841.015,2.092.438,3.133a21.761,21.761,0,0,0,3.33,5.163c.8.929,1.579,1.822,2.467,2.7a4.8,4.8,0,0,0,.6.5c-1.045.982-2.127,1.97-3.208,2.959a60.5,60.5,0,0,1-2.356-5.7,14.472,14.472,0,0,0-3.157-5.352c-1.335-1.172-2.827-.917-3.213.245-.716,1.925.186,4.463,1.4,6.628a19.1,19.1,0,0,0,2.831,3.632,25.652,25.652,0,0,0,2.052,1.884c.186.118.356.279.542.4-.506.449-1.029.94-1.536,1.388l-1.519,1.346c-.036.007-.072.014-.052.048-.036.007-.016.042-.016.042-.385.309-.787.659-1.173.968l-.036.007a30.819,30.819,0,0,0-5.2-8.209,16.085,16.085,0,0,0-3.779-3.329c-1.651-.955-4.184-1.775-4.414.093-.086,1.84,1.306,3.544,3,5a8.415,8.415,0,0,0-3.483-1.021,2.66,2.66,0,0,0-2.781,2.371c-.106,2.659,2.612,5.3,4.54,7.679,1.047,1.229,2.009,2.591,2,3.717a4.477,4.477,0,0,1-.174,1.043c-.048.126-.154.224-.075.364a.349.349,0,0,0,.226.188,2.008,2.008,0,0,0-.242.28,1.956,1.956,0,0,0-1.405,1.479.554.554,0,0,1-.026.238.956.956,0,0,1-.154.224,15.5,15.5,0,0,0-.918,1.422,12.686,12.686,0,0,0-.443-5.847c-1.248-3.439-4.778-6.895-5.817-10.1a19.914,19.914,0,0,1-.5-4.672c.183.041.343-.029.372-.19.092-.406.167-.77.278-1.141.341-1.386.622-2.45,1.054-3.815.239-.784.514-1.575.789-2.366l.036-.007a10.36,10.36,0,0,1,1.532-.185,20.646,20.646,0,0,1,4.424.138c2.312.282,5.207,1.535,6.876.314,1.245-.982.2-3.064-1.44-4.138a9.716,9.716,0,0,0-6.323-1.819,7.561,7.561,0,0,0-3.629,1.568q-.277.18-.564.344c.213-.973.39-1.939.629-2.723a55.465,55.465,0,0,1,2.6-6.679,2.391,2.391,0,0,0,.506-.022c.434-.008.869-.016,1.286.018a21.875,21.875,0,0,1,3.738.622,37.043,37.043,0,0,0,4.482,1.1c2.113.282,4.2-.051,5.4-1.257,1.108-1.227-.328-3.078-2.087-4.011a12.49,12.49,0,0,0-5.621-1.492,5.131,5.131,0,0,0-5.242,2.816,2.785,2.785,0,0,1-1.473,1.143,3.212,3.212,0,0,1-.591.155c.167-.343.278-.714.425-1.092.828-2.3,1-4.619,2.421-6.644.755-1,2.366-2.328,3.163-3.61.392-.581.784-1.163,1.121-1.772,2.482-.411,5.619.135,8.375-.214a3.943,3.943,0,0,0,2.593-1.21c1.115-1.5.068-3.155-2.266-3.976-2.484-.946-4.525.038-6.133,1.013a6.594,6.594,0,0,0-1.379,1.242,12.064,12.064,0,0,1,.484-1.414,5.131,5.131,0,0,1,1.7-2.158,19.17,19.17,0,0,0,2.574-2.1,18.2,18.2,0,0,0,1.764-1.123,5.713,5.713,0,0,0,1.879-1.844,2.9,2.9,0,0,0-.65-3.867,3.087,3.087,0,0,0-2.85-.6c-1.878.99-2.1,3.943-1.575,6.09q.19.661.381,1.321l.019.035c-.349.3-.7.6-1.068.87a10.408,10.408,0,0,0-1.8,1.48c-.032-1.2.423-2.449.333-3.75-.067-2.043-1.594-4.341-3.806-5.728-2.764-1.589-4.959-.381-4.367,2.1a11.241,11.241,0,0,0,1.663,3.4,25.426,25.426,0,0,0,2.809,3.52c.548.552,1.149,1.054,1.769,1.591a4.112,4.112,0,0,0,.6.426,20.538,20.538,0,0,0-.851,2.611,12.592,12.592,0,0,1-1.9,3.593c-.729,1.191-2.323,2.474-3.284,3.75a4.594,4.594,0,0,0-.474.792.657.657,0,0,0-.153-.2,38.581,38.581,0,0,1-.6-4.924,9.342,9.342,0,0,0-5.147-7.908c-1.629-.843-3.747-1.279-4.829-.29-1.219,1.171-1.021,3.3.084,5.064,1.556,2.564,4.287,4.664,7,6.379a15.753,15.753,0,0,1,2.806,1.736l.039.07a4.409,4.409,0,0,0,.209.657.316.316,0,0,0,.242.146c-.71,1.652-1.011,3.535-1.6,5.124-.88,2.346-1.982,4.58-2.862,6.925-.1-.252-.228-.692-.329-.944a33.544,33.544,0,0,1-.993-3.838c-.719-3.349-1.726-7.5-5.89-9.662-5.447-2.535-9.828.539-6.289,5.5,1.941,2.682,5.008,4.6,8.063,6.209a22.893,22.893,0,0,1,4.275,2.649,3.814,3.814,0,0,1,.447.727c.078.14.064.258.2.349l.166.084c-.062.245-.16.5-.223.742-.51,1.652-.78,3.451-1.179,5.158a8.7,8.7,0,0,1-.383,1.239c-.036.007-.016.042-.032.084-.1.252-.161.5-.258.749-1.749-1.984-2.7-4.471-4.406-6.657-1.674-1.92-4.274-3.93-6.811-3.973-3.729.036-1.192,4.851.863,6.812a16.943,16.943,0,0,0,6.038,3.66c.254.881.581,1.748.925,2.649-.248-.3-.532-.594-.78-.894-.7-.754-2.381-2.828-3.413-2.392-.97.618.612,2.517,1.581,3.18a9.7,9.7,0,0,0,3.052,1.532l.036-.007a12.952,12.952,0,0,1,.553,2.412,17.559,17.559,0,0,1,.136,1.951c-.075-.063-.17-.161-.245-.223-.359-.356-.682-.719-1-1.082a14.928,14.928,0,0,0-2.343-2.331c-1.739-1.325-3.265-.56-2.088,1.187a7.09,7.09,0,0,0,4.083,2.377,4.249,4.249,0,0,1,1.368.661l.019.035c.075.063.114.133.189.2a9.339,9.339,0,0,0,1.26,4.6c1.8,3.214,4.72,6.363,5.358,9.5.4,2.287-.154,4.568-.035,6.989.044,2.784.692,5.721.827,8.526.055.455.11.909.182,1.322q-1.453-1.634-3.064-3.121c-2.219-1.967-4.473-3.929-6.568-5.96a1.877,1.877,0,0,1,.121-.567,7.612,7.612,0,0,1,.877-2c.968-1.548,3.218-3.155,3.635-5.331.661-2.806-2.883-4.863-5.5-3.843-2.29,1.11-2.275,4.055-2.048,6.454a18.526,18.526,0,0,0,.592,2.909l-.284-.293c-1.478-1.571-2.887-3.233-4.349-4.846a2.786,2.786,0,0,0-.222-.538,7,7,0,0,1-.518-1.139,14.086,14.086,0,0,1-.914-4.552c-.044-2.784,1.662-4.866.956-7.907-.348-1.832-2.5-4.395-4.52-3.3a3.185,3.185,0,0,0-1.2,1.633,8.116,8.116,0,0,0-.548,3.366,15.071,15.071,0,0,0,1.08,5.063,24.892,24.892,0,0,0,1.392,2.983c-2.627-2.2-5.5-4.116-8.1-6.2a.284.284,0,0,0-.029-.266,4.271,4.271,0,0,1-.1-.678,6.234,6.234,0,0,1,.364-2.554c1.171-2.325,2.5-4.643,2.366-7.525-.086-3.358-1.045-8.987-5.729-11.013-3.205-1.308-4.661,1.15-4.675,3.4-.235,3.925,1.933,8.153,3.714,12.185.72,1.642,1.265,2.97,1.835,4.487a24.766,24.766,0,0,1-1.912-1.99,51.935,51.935,0,0,1-4.221-6.112c-1.207-2.012-2.557-4-3.763-6.008-.235-.419-.453-.88-.688-1.3a.223.223,0,0,0-.032-.343c-1.706-1.836-2.756-3.569-4.286-5.517a32.835,32.835,0,0,0-8.483-8.027c-1.524-.941-3.179-1.12-3.741.155-.337,1.036.259,2.315.833,3.482a18.039,18.039,0,0,0,2.143,3.185,29.978,29.978,0,0,0,4.979,4.334,43.7,43.7,0,0,0,6.625,3.854l2.272,1.065a.4.4,0,0,0,.183.042c.78,1.32,1.686,2.655,2.5,3.968a5.881,5.881,0,0,1-.7-.173,16.689,16.689,0,0,1-3.254-1.182c-3.75-1.783-7.248-4.469-11.355-5.677a3.575,3.575,0,0,0-2.21-.03,1.56,1.56,0,0,0-.752,1.932c.537,1.6,2.241,2.933,3.84,3.937,3.717,2.294,8.02,3.852,11.908,3.745a11.213,11.213,0,0,0,3.67-.568l.036-.007a44.839,44.839,0,0,0,3.907,5.553,28.747,28.747,0,0,0,4.464,4.125q.371.309.767.586a29.88,29.88,0,0,1-5.552-2.01c-2.011-.884-4.018-1.691-6.094-2.407-2.478-.792-5.2-1.808-7.5-1.432-1.4.276-1.689,1.613-.694,2.891a13.127,13.127,0,0,0,3.766,3.021,25.728,25.728,0,0,0,7.383,2.929,27.4,27.4,0,0,0,7.692.774,18.562,18.562,0,0,0,4.947-.78c.036-.007.016-.042.016-.042a58.82,58.82,0,0,1,5.7,4.774q1.561,1.613,3.015,3.247a37.8,37.8,0,0,1-7.584-1.222c-3.509-.783-7.864-2.292-10.226-.314-1.457,1.1-.877,3.276,1.048,4.72A11.9,11.9,0,0,0,1099,566.47a13.7,13.7,0,0,0,8.125-1.871,21.724,21.724,0,0,1,3.109-1.427,2.6,2.6,0,0,1,.754-.148l.216-.043c.646.726,1.348,1.48,2.029,2.2.264.258.493.524.737.747l.039.07c.039.07.095.1.205.154l1.077,1.068a.261.261,0,0,0,.081.217.725.725,0,0,0,.277.139c1.736,1.675,3.56,3.294,5.42,4.906a46.236,46.236,0,0,1,4.476,4.433c.075.063.134.168.228.265a.706.706,0,0,1-.007.273,29.208,29.208,0,0,0,.579,7.372c-1.512,1.074-4.17.743-6.227,1.342a3.12,3.12,0,0,0-2.5,3.013,5.922,5.922,0,0,0,3.213,4.526c2.542,1.478,4.989.22,5.435-1.691a21.206,21.206,0,0,0,.633-4.353,41.478,41.478,0,0,1,.9,5.021,44.894,44.894,0,0,1,.042,5.345,3.519,3.519,0,0,0,.091.874c.192.273.679.215.63-.085a35.046,35.046,0,0,1,.042-3.771,35.761,35.761,0,0,0-.262-3.672c-.243-1.93-.8-3.916-1.187-5.895l.04-.357a.126.126,0,0,0-.023-.112c.323-.064.32-.141.536-.183a10.721,10.721,0,0,1,3.771-.316c-.048.126-.007.273-.075.364-.043.28-.108.448-.137.609a17.76,17.76,0,0,1-1.256,2.885c-.87,1.723-1.851,3.817-.4,6.128,2.429,3.982,7.092,3.336,6.1-.58-.472-2.2-2.308-4.549-3.006-6.507a3.648,3.648,0,0,1-.09-2.155,1.972,1.972,0,0,1,.193-.581c1.166.159,2.315.359,3.516.51a13.857,13.857,0,0,0,1.776.116Zm-21.044-47.833c-.143-.4-.251-.8-.375-1.167.294.1.623.188.9.25a5.038,5.038,0,0,1,1.677.717l.02.035.055.028c.15.126.248.3.414.384-.016.042,0,.077-.032.084a42.91,42.91,0,0,0-1.182,4.228c-.016.042,0,.077-.032.084a22.443,22.443,0,0,0-1.444-4.642Zm13.275,36.524a10.61,10.61,0,0,1,2.266.058,8.491,8.491,0,0,1,1.042.221,6.318,6.318,0,0,0-.893,2.891,5.451,5.451,0,0,0-1.289-.949,8.4,8.4,0,0,0-2.833-1.071l-.02-.035c.294-.329.588-.659.9-.953l.036-.007a2.864,2.864,0,0,1,.79-.156Zm10.708-12.853a19.348,19.348,0,0,0-1.329-4.509,30.4,30.4,0,0,0-1.366-2.8,3.451,3.451,0,0,0-.31-.482l.578-.463a24.284,24.284,0,0,1,3.942,2.482c.747.551,1.553,1.207,2.412,1.814-1.284,1.339-2.623,2.65-3.927,3.954Zm13.273-22.163a21.807,21.807,0,0,1,3.217-1.875c.232-.084.408-.2.64-.281-.409,1.05-.8,2.135-1.262,3.158s-.984,2.017-1.5,3.011a.232.232,0,0,0-.1.175c-.032.084-.085.133-.118.217a15.268,15.268,0,0,0-3.575-.615c-.58-.041-1.126-.089-1.688-.094,1.467-1.3,2.9-2.587,4.391-3.7Zm-5.541,4.777a41.711,41.711,0,0,1,4.713,2.718c-.356.574-.677,1.142-1.052,1.681a6.749,6.749,0,0,0-2.04-.723,17.269,17.269,0,0,0-5.26-.206C1146.328,546.1,1147.582,544.919,1148.765,543.756Zm-5.927,5.511a4.26,4.26,0,0,0,.366-.344c.238.07.509.055.748.124.914.208,1.867.486,2.785.771a37.045,37.045,0,0,0,3.7,1.055c-.67.869-1.4,1.709-2.121,2.551a11.469,11.469,0,0,0-2.974-1.393,14.141,14.141,0,0,0-2.889-.672c-.637-.069-1.254-.1-1.871-.136q1.181-.99,2.254-1.957Zm-12.563,8.331a13.218,13.218,0,0,0,1.553-3.137c.333.594.665,1.188,1.053,1.81a37.745,37.745,0,0,0-3.313,2.63l.706-1.3Zm-1.054,2.534a36.685,36.685,0,0,1,4.045-3.318,32.746,32.746,0,0,0,3.987,4.84c.509.482,1.073.991,1.6,1.431a1.312,1.312,0,0,0,.206.153c-.85.9-1.68,1.843-2.509,2.783a.225.225,0,0,0-.216.042.193.193,0,0,0-.078.287c-.468.519-.9,1.03-1.386,1.514a21.067,21.067,0,0,0-1.345-4.467C1132.629,561.517,1131.151,559.946,1129.221,560.132Zm-3.077,14.8c-.187-3.183-.913-6.259-.839-9.261.01-.2,0-.427.01-.622.382.041.431-.512.621-.743.219-.392.458-.749.7-1.107a8.707,8.707,0,0,0,1.745,2.76,12.737,12.737,0,0,0,3.773,2.321,5.525,5.525,0,0,1,.708.481c.02.035.095.1.114.133.056.028.153.2.209.23a1.254,1.254,0,0,1,.176.314c-1.32,1.346-2.751,2.636-4.107,3.989a12.5,12.5,0,0,0,0-2.987,3.984,3.984,0,0,0-.831-2.125,1.172,1.172,0,0,0-1.531-.242,1.665,1.665,0,0,0-.364,1.274,9.463,9.463,0,0,0,.654,2.664,15.3,15.3,0,0,1,.655,2.237,2.964,2.964,0,0,1,.078.566q-.8.915-1.548,1.934c-.062-.608-.16-1.21-.222-1.818Zm1.492,9.287a4.783,4.783,0,0,0-.715.218l-.036.007c-.267-1.615-.487-3.434-.578-4.735a3.63,3.63,0,0,1,0-.777.246.246,0,0,0,.186.119c.294.1.5-.1.346-.379-.062-.182-.088-.371-.15-.552.144-.028.248-.126.206-.273.036-.007.036-.007.092.021a4.744,4.744,0,0,1,1.058.18c.679.215,1.9.828,2.853,1.106a3.476,3.476,0,0,0,1.89.171,8.1,8.1,0,0,0,.254,1.308,11.132,11.132,0,0,0,1.763,3.648c.039.07.114.133.153.2-2.334-.394-5.213-.835-7.326-.264Z" transform="translate(-827.319 -49.482)" fill="#dad8e4"/>
    <path id="Path_74211" data-name="Path 74211" d="M340.98,594.539c-14.712,3.475-36.81,16.1-41.9-7.283-3.488-16.024,37.93-14.656,46.533-23.534,18.923-19.531,48.049-1.861,35.594,4.417C356.25,580.714,376.272,586.2,340.98,594.539Z" transform="translate(-183.094 -102.142)" fill="#f0eff4" fill-rule="evenodd"/>
    <path id="Path_74212" data-name="Path 74212" d="M887.211,576.107c-5.548,8.312-61.418,12.87-68.68,2.656-11.224-15.772,21.1-60.847,21.1-60.847-.417-2.154-.495-7.362,1.2-9.395,2.571-3.089-1.253-6.023,1.126-6.689,3.058-.853,5.508,2.035,10.835,3.48,3.156.847,2.715,9.131-.268,13.768a4.364,4.364,0,0,1-3.091,1.8s-12.469,30.683-9.821,36.56c3.285,7.269,18.923-1.1,42.952-4.492C894.057,551.319,890.268,571.525,887.211,576.107Z" transform="translate(-616.963 -57.594)" fill="#ffc197" fill-rule="evenodd"/>
    <g id="Group_16440" data-name="Group 16440" transform="translate(199.2 444.084)" clip-path="url(#clip-path)">
      <path id="Path_74213" data-name="Path 74213" d="M1048.876,783.249c2.1,1.613,2.6,5.432,2.957,7.822a15.827,15.827,0,0,1-.581,7.552c-1.269,3.664-3.9,6.66-4.982,10.391a14.567,14.567,0,0,0,.33,8.628,11.254,11.254,0,0,0,1.96,3.5c5.083,6.126,15.549,3.839,21.968,1.685,7.223-2.424,14.358-7.043,18.085-13.893,5.782-10.62.537-23.721-9.424-29.61a28.45,28.45,0,0,0-12.971-3.852,27.732,27.732,0,0,0-15.693,3.553Z" transform="translate(-1008.739 -731.277)" fill="#fe9400" fill-rule="evenodd"/>
      <path id="Path_74214" data-name="Path 74214" d="M718.206,601.67c-3.609,6.81-8.265,21.7-10.693,28.969-3.1,9.331-4.334,16.4.429,24.76,5.635,9.914,24.445,6.039,33.649,3.492q3.046-.845,6.011-1.953a59.22,59.22,0,0,0,8.09-3.668,52.431,52.431,0,0,0,13.859-11.744c1.154-1.325,2.187-2.774,3.408-4.034.362-.377.912-.932,1.5-.864.993.114,1.221,1.945,1.355,2.658a38.208,38.208,0,0,1,.268,9.012c-.792,11.767-4.615,23.521-15.134,29.948-6.494,3.97-14.584,5.2-21.99,6.291s-15.174,2.064-22.661,1.382c-13.363-1.218-27.464-7.025-34.776-18.876-8.452-13.728-4.561-32.075,2.375-45.579a56.027,56.027,0,0,1,6.1-9.554c4.628-5.749,10.827-10.982,18.139-12.738Z" transform="translate(-699.201 -583.449)" fill="rgba(0,0,0,0.1)" fill-rule="evenodd"/>
    </g>
    <path id="Path_74216" data-name="Path 74216" d="M150.429,502.223a4.757,4.757,0,0,0-3.345-1.99,5.574,5.574,0,0,0-4.041.91l-60.91,43.844a3.253,3.253,0,0,0-1.055,4.492L157.732,670.14a4.794,4.794,0,0,0,3.354,2.005,5.574,5.574,0,0,0,4.041-.91l60.91-43.844a3.253,3.253,0,0,0,1.055-4.492Zm-.915.371,76.664,120.678a2.542,2.542,0,0,1-.833,3.51l-60.91,43.844a4.424,4.424,0,0,1-3.163.721,3.7,3.7,0,0,1-2.625-1.576L81.993,549.108a2.546,2.546,0,0,1,.822-3.525l60.91-43.844a4.423,4.423,0,0,1,3.163-.721,3.729,3.729,0,0,1,2.626,1.575Z" transform="translate(0 -56.323)" fill="#77536f" fill-rule="evenodd"/>
    <path id="Path_74217" data-name="Path 74217" d="M234.542,502.414a1.506,1.506,0,0,0-1.01-.684,1.558,1.558,0,0,0-1.177.249l-64.916,46.728a1.538,1.538,0,0,0-.39,2.076l75.9,119.482a1.469,1.469,0,0,0,1,.669,1.49,1.49,0,0,0,1.178-.25l64.915-46.728a1.522,1.522,0,0,0,.4-2.061Z" transform="translate(-72.326 -57.615)" fill="#57c1f2" fill-rule="evenodd"/>
    <path id="Path_74218" data-name="Path 74218" d="M631.193,1071.271a7.708,7.708,0,0,0-5.445-3.253,9.092,9.092,0,0,0-6.553,1.478l-33.917,24.414c-4.322,3.111-5.487,8.132-2.859,12.267a7.7,7.7,0,0,0,5.443,3.251,9.089,9.089,0,0,0,6.544-1.472l33.925-24.42C632.645,1080.432,633.82,1075.406,631.193,1071.271Zm-.732.292h0c2.46,3.872,1.36,8.578-2.68,11.486l-33.925,24.42a8.123,8.123,0,0,1-5.847,1.316,6.917,6.917,0,0,1-4.86-2.9c-2.46-3.872-1.36-8.578,2.68-11.486l33.925-24.421a8.087,8.087,0,0,1,5.838-1.312,6.893,6.893,0,0,1,4.868,2.9Z" transform="translate(-419.746 -532.515)" fill="#fff" fill-rule="evenodd"/>
    <path id="Path_74219" data-name="Path 74219" d="M743.316,999.015a9.336,9.336,0,0,0-13.334-2.567l-43.4,31.242a10.576,10.576,0,0,0-2.747,14.261,9.331,9.331,0,0,0,13.334,2.568l43.4-31.242a10.584,10.584,0,0,0,2.749-14.259Z" transform="translate(-504.586 -471.097)" fill="#63584d" fill-rule="evenodd"/>
    <path id="Path_74220" data-name="Path 74220" d="M492.333,863.518a3.768,3.768,0,0,0-5.386-1.035l-42.433,30.544a4.245,4.245,0,0,0-1.105,5.724,3.768,3.768,0,0,0,5.378,1.04l42.441-30.55a4.244,4.244,0,0,0,1.106-5.723Zm9.029,14.209a3.768,3.768,0,0,0-5.386-1.035l-42.433,30.545a4.245,4.245,0,0,0-1.105,5.724,3.769,3.769,0,0,0,5.378,1.04l42.441-30.55a4.244,4.244,0,0,0,1.106-5.723Z" transform="translate(-303.767 -359.615)" fill="#fff" fill-rule="evenodd"/>
    <ellipse id="Ellipse_40" data-name="Ellipse 40" cx="20.142" cy="16.701" rx="20.142" ry="16.701" transform="translate(120.98 497.683) rotate(-43.2)" fill="#fff"/>
    <path id="Path_74222" data-name="Path 74222" d="M447.356,788.921a6.708,6.708,0,0,1-5.721-3.031c-2.261-3.558-.785-8.836,3.3-11.778s9.257-2.446,11.517,1.113a8.045,8.045,0,0,1-.007,7.967c5.542-1.865,10.5-.941,11.751,2.5,1.463,4.042-2.75,10.04-9.4,13.381s-13.249,2.777-14.712-1.265c-.913-2.57.44-5.924,3.265-8.888Z" transform="translate(-301.946 -284.484)" fill="#d1cfe1" fill-rule="evenodd"/>
    <path id="Path_74223" data-name="Path 74223" d="M1187.756,901.473c1.422-26.833-8.01-50.187-7.151-65.527.55-9.731-3.663-24.174,12.33-26.514,13.712-2.006,30.657,1.618,34,5.308,6.762,7.444,4.307,47.8-2.12,53.308C1211.933,876.272,1197.818,893.257,1187.756,901.473Z" transform="translate(-922.533 -315.237)" fill="#fe9400" fill-rule="evenodd"/>
    <g id="Group_16442" data-name="Group 16442" transform="translate(257.954 493.623)" clip-path="url(#clip-path-2)">
      <path id="Path_74224" data-name="Path 74224" d="M1245.894,936.749a16.008,16.008,0,0,0-2.267,5.086,31.683,31.683,0,0,0-.8,13.739c.617,4.612,1.838,9.39,1.006,14.055-.63,3.451-2.482,6.3-4.293,9.235-4.548,7.37-7.231,9.79-13.39,15.255-3.5,3.1-10.331,15.825-9.3,20.778.711,3.455,6.172.1,8.225-.955,5.568-2.87,10.546-6.9,15.979-10.056,7.755-4.509,16.476-8.4,22.285-15.5,7.715-9.434,8.64-23.7,5.675-35.137-1.409-5.444-3.891-11.143-8.788-14.266Z" transform="translate(-1210.895 -916.125)" fill="rgba(0,0,0,0.1)" fill-rule="evenodd"/>
    </g>
    <path id="Path_74226" data-name="Path 74226" d="M1002.384,843.462c9.218,3.891,27.989,56.854,17.2,66.721s-81.928-7.515-81.928-7.515c-2.038.814-7.126,1.868-9.454.581-3.5-1.944-1.347-6.285-2.448-8.5-1.412-2.843-11.5,3.554-11.089-1.953.253-3.257,16.6-5.079,21.715-3.016a4.358,4.358,0,0,1,2.356,2.7s50.668,4.693,55.943.988c6.524-4.59-9.828-21.139-7.284-39.845C988.96,842.132,997.322,841.321,1002.384,843.462Z" transform="translate(-699.569 -343.474)" fill="#ffc197" fill-rule="evenodd"/>
    <g id="Group_16443" data-name="Group 16443" transform="translate(215.083 499.052)" clip-path="url(#clip-path-3)">
      <path id="Path_74227" data-name="Path 74227" d="M1310.3,828.273c1.19-2.368,4.848-3.573,7.128-4.372a15.836,15.836,0,0,1,7.526-.847c3.837.559,7.274,2.582,11.141,2.945a14.566,14.566,0,0,0,8.413-1.943,11.245,11.245,0,0,0,3.068-2.581c5.064-6.142.855-15.993-2.465-21.894-3.736-6.64-9.612-12.782-17.039-15.158-11.516-3.687-23.4,3.922-27.316,14.812a28.449,28.449,0,0,0-1.35,13.464,27.728,27.728,0,0,0,6.435,14.748Z" transform="translate(-1237.119 -793.004)" fill="#fe9400" fill-rule="evenodd"/>
    </g>
    <path id="Path_74229" data-name="Path 74229" d="M1253.475,655.058s5.407-4,4.146-8.21c-.323-1.105-2.764,2.01-4.964.661-3.005-1.855-3.73-12.543-.335-18.1,2.106-3.447,9.512-5.514,11.927-3.166s3.367,12.356,2.536,17.256c-1.315,7.817,5.81,12.519,5.81,12.519s-11.834,9.471-14.812,17.332C1256.91,675.654,1253.475,655.058,1253.475,655.058Z" transform="translate(-980.897 -161.226)" fill="#ffc197" fill-rule="evenodd"/>
    <g id="Group_16444" data-name="Group 16444" transform="translate(269.176 464.01)" clip-path="url(#clip-path-4)">
      <path id="Path_74230" data-name="Path 74230" d="M1287.722,736.807a4.823,4.823,0,0,0,1.1-1.06,22.559,22.559,0,0,0,2.04-2.529c.228-.355.456-.717.711-1.067.054-.089.2-.346.336-.346s.054.443.04.5a10.731,10.731,0,0,1-.429,1.825,17.172,17.172,0,0,1-3.877,6.149Z" transform="translate(-1281.583 -714.619)" fill="rgba(0,0,0,0.1)" fill-rule="evenodd"/>
    </g>
    <path id="Path_74232" data-name="Path 74232" d="M1248.686,617.591a5.21,5.21,0,0,1-2.724-1.249c-2.992-2.3-2.79-6.315-.188-8.843,1.57-1.517,4.79-2.53,6.292-.394a3.8,3.8,0,0,1,2.254-1.153,5.578,5.578,0,0,1,1.905-.166c4.374.589,3.354,6.086,6.681,7.843,1.087-.7,2.281,1.586,2.5,2.282.738,2.422.416,6.561-2.375,7.527a3.454,3.454,0,0,1-1.409,1.484c-1.516,1.043-3.958,1.788-5.648.711a2.73,2.73,0,0,1-.55-.47c-1.208-1.343.067-2.874.469-4.269a2.1,2.1,0,0,0-.255-2.234c-.523-.453-1.047-.2-1.462.242-.631.667-.98,1.717-1.986,1.905-1.449.268-2.858-1.124-3.314-2.1a7.152,7.152,0,0,1-.188-1.115Z" transform="translate(-975.611 -144.896)" fill-rule="evenodd"/>
    <g id="Group_16445" data-name="Group 16445" transform="translate(184.802 433.01)">
      <path id="Path_74233" data-name="Path 74233" d="M910.365,462.034a2.521,2.521,0,0,0-1.409-2.266l-53.888-26.5a2.53,2.53,0,0,0-3.64,2.266v8.918a2.535,2.535,0,0,0,1.409,2.265l53.9,26.507a2.52,2.52,0,0,0,3.63-2.272Z" transform="translate(-831.342 -433.01)" fill="#6fac43" fill-rule="evenodd"/>
      <text id="تسجيل_خروج" data-name="تسجيل خروج" transform="matrix(0.799, -0.602, 0.602, 0.799, 37.165, 106.88)" fill="#f5f6f8" font-size="8" font-family="SegoeUI, Segoe UI"><tspan x="-40.934" y="0">تسجيل خروج</tspan></text>
    </g>
    <path id="Path_74235" data-name="Path 74235" d="M1006.591,594.084c.839-.952,5.874-3.244,7.2-3.428,2.108-.31,4.092,1.071,3.361,3.076-.29.771-6.669,2.543-8.423,2.606C1008.007,596.361,1006.256,594.461,1006.591,594.084Z" transform="translate(-776.646 -132.187)" fill="#ffc197" fill-rule="evenodd"/>
  </g>
</svg>
