<svg xmlns="http://www.w3.org/2000/svg" width="200.465" height="164.086" viewBox="0 0 200.465 164.086">
  <g id="Group_16398" data-name="Group 16398" transform="translate(-3.07 -8.32)">
    <circle id="Ellipse_37" data-name="Ellipse 37" cx="53.841" cy="53.841" r="53.841" transform="translate(90.522 63.131)" fill="#57c1f2" opacity="0.53"/>
    <path id="Path_74183" data-name="Path 74183" d="M7.365,22.564,95.956,37.014a7.114,7.114,0,0,0,2.148,0l92.818-13.59c1.5-.225,2.5-.9,2.425-1.655V13.36c.009-.707-.924-1.339-2.321-1.573l-9.944-1.655a7.938,7.938,0,0,0-1.109-.083L15.958,9.52a4.349,4.349,0,0,0-3.291,1.092L5.252,20.428a.9.9,0,0,0,.119,1.279A3.728,3.728,0,0,0,7.365,22.564Z" transform="translate(4.851 2.957)" fill="#57c1f2" opacity="0.53"/>
    <path id="Path_74184" data-name="Path 74184" d="M184.479,172.406H22.126A19.09,19.09,0,0,1,3.07,153.35V27.376A19.09,19.09,0,0,1,22.126,8.32H184.479a19.09,19.09,0,0,1,19.056,19.056V153.35A19.09,19.09,0,0,1,184.479,172.406ZM22.126,18.714a8.662,8.662,0,0,0-8.662,8.662V153.35a8.662,8.662,0,0,0,8.662,8.662H184.479a8.662,8.662,0,0,0,8.662-8.662V27.376a8.662,8.662,0,0,0-8.662-8.662Z" transform="translate(0)" fill="#005560"/>
    <path id="Path_74185" data-name="Path 74185" d="M78.225,46.928a6.929,6.929,0,0,1-1.455-.173L17,29.431a5.214,5.214,0,1,1,2.91-10.013l58.31,16.908,58.31-16.908a5.214,5.214,0,1,1,2.91,10.013L79.68,46.754a6.929,6.929,0,0,1-1.455.173Zm24.738,75.495A5.162,5.162,0,0,1,99.29,120.9L88.273,109.742a5.232,5.232,0,0,1,3.811-8.9h54.811a5.2,5.2,0,0,1,0,10.394H104.522l2.113,2.148a5.232,5.232,0,0,1,0,7.345A5.3,5.3,0,0,1,102.963,122.422Z" transform="translate(25.077 26.84)" fill="#005560"/>
    <path id="Path_74186" data-name="Path 74186" d="M39.694,61.168a5.2,5.2,0,0,1-3.673-8.87L46.9,41.177a5.2,5.2,0,1,1,7.345,7.345L43.158,59.678A5.127,5.127,0,0,1,39.694,61.168Z" transform="translate(77.467 76.903)" fill="#005560"/>
  </g>
</svg>
