<svg xmlns="http://www.w3.org/2000/svg" width="63.667" height="50.934" viewBox="0 0 63.667 50.934">
  <path id="Path_43575" data-name="Path 43575" d="M59.3,4H8.367a6.358,6.358,0,0,0-6.335,6.367L2,48.567a6.385,6.385,0,0,0,6.367,6.367H59.3a6.385,6.385,0,0,0,6.367-6.367v-38.2A6.385,6.385,0,0,0,59.3,4ZM56.117,48.567H11.55a3.193,3.193,0,0,1-3.183-3.183V16.733L30.459,30.549a6.305,6.305,0,0,0,6.749,0L59.3,16.733v28.65A3.193,3.193,0,0,1,56.117,48.567ZM33.833,26.283,8.367,10.367H59.3Z" transform="translate(-2 -4)"/>
</svg>
