<svg xmlns="http://www.w3.org/2000/svg" width="8.294" height="18.546" viewBox="0 0 8.294 18.546">
  <g id="Group_8572" data-name="Group 8572" transform="translate(-1313.268 -1064.531)">
    <path id="Path_69520" data-name="Path 69520" d="M1014.761,443.532a5.051,5.051,0,0,0,3.193,1.163v3.26a8.291,8.291,0,0,1-4.911-1.628,5.069,5.069,0,0,1,1.717-2.795" transform="translate(303.607 630.271)" fill="#f5f6f8"/>
    <path id="Path_69521" data-name="Path 69521" d="M978.528,345.364a5.091,5.091,0,0,0,.123,1.114,8.375,8.375,0,0,0-2.411,2.794,8.337,8.337,0,0,1,.985-9.273l2.9,1.673a5.056,5.056,0,0,0-1.594,3.691" transform="translate(338 724.531)" fill="#f5f6f8"/>
    <path id="Path_69523" data-name="Path 69523" d="M980.122,451.133l-2.9,1.673a8.337,8.337,0,0,1-.985-9.273,8.366,8.366,0,0,0,2.411,2.795,5.08,5.08,0,0,0,1.471,4.805" transform="translate(338 630.271)" fill="#f5f6f8"/>
    <path id="Path_69524" data-name="Path 69524" d="M1017.955,394.151v3.26a5.052,5.052,0,0,0-3.194,1.162,5.067,5.067,0,0,1-1.717-2.794,8.293,8.293,0,0,1,4.911-1.628" transform="translate(303.607 675.23)" fill="#f5f6f8"/>
  </g>
</svg>
