<svg xmlns="http://www.w3.org/2000/svg" width="65.927" height="66.048" viewBox="0 0 65.927 66.048">
  <path id="Path_43573" data-name="Path 43573" d="M51.223,68.021a15.576,15.576,0,0,1-7.737-2.054l-.332-.187A103.2,103.2,0,0,1,5.935,29.349L4.2,26.462A15.423,15.423,0,0,1,6.526,7.6L9.977,4.148a7.442,7.442,0,0,1,10.516,0l7.6,7.6a7.462,7.462,0,0,1,1.224,8.907l-2.858,5.076a.562.562,0,0,0,.092.672L43.486,43.34a.57.57,0,0,0,.678.09l5.068-2.856,0,0a7.468,7.468,0,0,1,8.907,1.223l7.607,7.61a7.442,7.442,0,0,1,0,10.516l-3.6,3.6a15.42,15.42,0,0,1-10.922,4.5ZM15.235,7.247a2.156,2.156,0,0,0-1.529.633l-3.452,3.449A10.152,10.152,0,0,0,8.725,23.743l1.732,2.887a97.907,97.907,0,0,0,35.3,34.561l.332.187a10.24,10.24,0,0,0,12.319-1.587l3.6-3.6a2.162,2.162,0,0,0,0-3.059l-7.607-7.61a2.17,2.17,0,0,0-2.592-.353l-5.068,2.856a5.859,5.859,0,0,1-6.993-.957L22.827,30.135a5.849,5.849,0,0,1-.957-6.99l2.858-5.073a2.173,2.173,0,0,0-.356-2.589l-7.607-7.6a2.157,2.157,0,0,0-1.529-.633Z" transform="translate(-1.998 -1.973)"/>
</svg>
