<svg xmlns="http://www.w3.org/2000/svg" width="175.531" height="166.031" viewBox="0 0 175.531 166.031">
  <g id="Group_16403" data-name="Group 16403" transform="translate(-595.469 -754)">
    <g id="Group_16401" data-name="Group 16401" transform="translate(595.469 754)">
      <path id="Path_74190" data-name="Path 74190" d="M86.1,2H30.754A20.77,20.77,0,0,0,10,22.754V133.441A20.77,20.77,0,0,0,30.754,154.2H86.1a20.77,20.77,0,0,0,20.754-20.754V22.754A20.77,20.77,0,0,0,86.1,2ZM72.262,140.359H44.59v-6.918H72.262Zm22.483-20.754H22.106V22.754H94.745Z" transform="translate(24.59 4.918)" fill="#3ad3e8"/>
      <path id="Path_74191" data-name="Path 74191" d="M0,0H166.031V166.031H0Z" fill="none"/>
    </g>
    <g id="Group_16402" data-name="Group 16402" transform="translate(691.5 -191.36)">
      <path id="Path_74189" data-name="Path 74189" d="M39.5,0C61.315,0,79,17.909,79,40S61.315,80,39.5,80,0,62.091,0,40,17.685,0,39.5,0Z" transform="translate(0.5 1028.36)" fill="#50b748"/>
      <path id="Path_74188" data-name="Path 74188" d="M23.547,2A21.562,21.562,0,1,1,8.316,8.314,21.469,21.469,0,0,1,23.547,2Zm9.8,14.913a1.666,1.666,0,0,0-.861.341l-12.1,9.076-5.608-5.6c-1.216-1.265-3.611,1.126-2.342,2.342l6.625,6.625a1.713,1.713,0,0,0,2.163.156l13.25-9.937a1.749,1.749,0,0,0-.951-2.994,1.657,1.657,0,0,0-.169,0Z" transform="translate(16.206 1044.576)" fill="#fff"/>
    </g>
  </g>
</svg>
