<svg xmlns="http://www.w3.org/2000/svg" width="16.665" height="20.723" viewBox="0 0 16.665 20.723">
  <g id="Group_16428" data-name="Group 16428" transform="translate(0.75 0.75)">
    <circle id="Ellipse_39" data-name="Ellipse 39" cx="4.778" cy="4.778" r="4.778" transform="translate(2.801 0)" fill="none" stroke="#000" stroke-linecap="round" stroke-linejoin="round" stroke-width="1.5"/>
    <path id="Path_74200" data-name="Path 74200" d="M0,16.2a2.216,2.216,0,0,1,.22-.97,4.042,4.042,0,0,1,2.819-1.62,16.778,16.778,0,0,1,2.343-.33,25.039,25.039,0,0,1,4.384,0,16.979,16.979,0,0,1,2.343.33c1.071.22,2.361.659,2.819,1.62a2.27,2.27,0,0,1,0,1.95c-.458.961-1.748,1.4-2.819,1.611a15.722,15.722,0,0,1-2.343.339,25.825,25.825,0,0,1-3.57.055,4.06,4.06,0,0,1-.815-.055,15.417,15.417,0,0,1-2.334-.339c-1.08-.211-2.362-.65-2.828-1.611A2.28,2.28,0,0,1,0,16.2Z" fill="none" stroke="#000" stroke-linecap="round" stroke-linejoin="round" stroke-width="1.5" fill-rule="evenodd"/>
  </g>
</svg>
