<svg xmlns="http://www.w3.org/2000/svg" width="27.857" height="24.202" viewBox="0 0 27.857 24.202">
  <g id="Group_16370" data-name="Group 16370" transform="translate(-5 -10.256)">
    <path id="Path_74165" data-name="Path 74165" d="M17.921,30.974H6.682a.78.78,0,0,1-.78-.779V11.936a.78.78,0,0,1,.78-.779H28.117a.78.78,0,0,1,.779.779V27.252a.451.451,0,1,0,.9,0V11.938a1.684,1.684,0,0,0-1.682-1.682H6.682A1.684,1.684,0,0,0,5,11.936V30.194a1.684,1.684,0,0,0,1.682,1.682H17.921a.451.451,0,1,0,0-.9Z"/>
    <path id="Path_74166" data-name="Path 74166" d="M33.324,25.481V19.136a.451.451,0,0,0-.451-.451H14.819a.451.451,0,0,0-.451.451v6.344a.451.451,0,0,0,.451.451H32.872A.451.451,0,0,0,33.324,25.481Zm-.9-.451H15.268V19.587H32.421ZM26.4,28.488a.451.451,0,1,0,0-.9H24.418a.451.451,0,1,0,0,.9Zm-11.611,0h8.183a.451.451,0,0,0,0-.9H14.792a.451.451,0,1,0,0,.9Zm15.7,2.587H32.9a.451.451,0,0,0,0-.9H30.495a.451.451,0,0,0,0,.9Zm-.872-.451a.451.451,0,0,0-.451-.451h-.722a.451.451,0,1,0,0,.9h.722A.451.451,0,0,0,29.622,30.624Zm-2.346,0a.451.451,0,0,0-.451-.451H21.832a.451.451,0,1,0,0,.9h4.993A.451.451,0,0,0,27.276,30.624Zm-12.484.451h5.595a.451.451,0,1,0,0-.9H14.792a.451.451,0,0,0,0,.9Zm9.746,2.767H28.81a.451.451,0,1,0,0-.9H24.539a.451.451,0,0,0,0,.9Zm-9.746,0h8.3a.451.451,0,1,0,0-.9h-8.3a.451.451,0,1,0,0,.9Zm23.766,2.4a13.364,13.364,0,0,0-2.391-1.608,8.121,8.121,0,0,0-3.722-1.013,9.527,9.527,0,0,0-5.3,1.991l-.014.01A4.988,4.988,0,0,0,26.05,36.75a.744.744,0,0,0,.3.961,13.353,13.353,0,0,0,2.378,1.6,8.118,8.118,0,0,0,3.722,1.013,8.119,8.119,0,0,0,3.722-1.013A13.352,13.352,0,0,0,38.559,37.7a.953.953,0,0,0,0-1.457ZM32.83,34.554a1.541,1.541,0,0,0-.125.6,1.863,1.863,0,0,0-.259-.019,1.84,1.84,0,1,0,1.84,1.84,1.872,1.872,0,0,0-.019-.259,1.541,1.541,0,0,0,.6-.125,2.481,2.481,0,0,1,.03.385,2.447,2.447,0,1,1-2.447-2.447c.034,0,.069,0,.1,0A2.472,2.472,0,0,1,32.83,34.554Zm.553,2.417a.938.938,0,1,1-.938-.938A.938.938,0,0,1,33.384,36.971Zm-6.548.222Zm.111-.157a5.192,5.192,0,0,1,.731-.7A11.6,11.6,0,0,1,29.6,35.21a3.339,3.339,0,0,0,0,3.519,12.229,12.229,0,0,1-2.65-1.693Zm11.031-.027a12.248,12.248,0,0,1-2.682,1.72,3.349,3.349,0,0,0,.234-3.068.451.451,0,0,0-.771-.1.642.642,0,1,1-.941-.867,10.887,10.887,0,0,1,4.161,2.239.05.05,0,0,1,0,.076Z" transform="translate(-6.04 -5.863)"/>
  </g>
</svg>
