<svg xmlns="http://www.w3.org/2000/svg" width="18.967" height="19" viewBox="0 0 18.967 19">
  <g id="Group_16429" data-name="Group 16429" transform="translate(-2.5 -2.5)">
    <path id="Path_74205" data-name="Path 74205" d="M20.9,11.6c-.1-.1-.1-.2-.2-.3l-3-3a.99.99,0,1,0-1.4,1.4L17.6,11H13a1,1,0,0,0,0,2h4.6l-1.3,1.3a.967.967,0,0,0,0,1.4.967.967,0,0,0,1.4,0l3-3c.1-.1.2-.2.2-.3a1.1,1.1,0,0,0,0-.8Z" stroke="#707070" stroke-width="1"/>
    <path id="Path_74206" data-name="Path 74206" d="M15.5,18.1A7.3,7.3,0,0,1,12,19,7,7,0,0,1,12,5a7.3,7.3,0,0,1,3.5.9,1.03,1.03,0,0,0,1-1.8A9.969,9.969,0,0,0,12,3a9,9,0,1,0,4.5,16.8,1.107,1.107,0,0,0,.4-1.4A1.076,1.076,0,0,0,15.5,18.1Z" stroke="#707070" stroke-width="1"/>
  </g>
</svg>
