<svg xmlns="http://www.w3.org/2000/svg" width="20" height="20" viewBox="0 0 20 20">
  <path id="Path_74201" data-name="Path 74201" d="M10.007,0A10,10,0,0,1,10,20a9.924,9.924,0,0,1-2.148-.235A.749.749,0,1,1,8.172,18.3,8.5,8.5,0,1,0,10.006,1.5h0A8.5,8.5,0,0,0,2.46,13.931h0l.192.375a1.963,1.963,0,0,1,.135,1.483,17.118,17.118,0,0,0-.53,1.632C2.818,17.252,3.5,17,4,16.822H4l.2-.073a.748.748,0,0,1,.509,1.408h0l-.2.073a23.755,23.755,0,0,1-2.441.791.773.773,0,0,1-.178.019A1.207,1.207,0,0,1,1,18.7a1.311,1.311,0,0,1-.336-1,.765.765,0,0,1,.019-.147,17.515,17.515,0,0,1,.69-2.246.47.47,0,0,0-.049-.309h0l-.193-.374A10,10,0,0,1,10,0h0ZM10,8.809A1.189,1.189,0,1,1,8.807,10,1.19,1.19,0,0,1,10,8.809Zm4.4,0A1.189,1.189,0,1,1,13.21,10,1.19,1.19,0,0,1,14.4,8.809Zm-8.807,0A1.189,1.189,0,1,1,4.4,10,1.19,1.19,0,0,1,5.592,8.81Z"/>
</svg>
