<svg xmlns="http://www.w3.org/2000/svg" width="28.2" height="28.201" viewBox="0 0 28.2 28.201">
  <g id="Group_16502" data-name="Group 16502" transform="translate(-14 -13.993)">
    <path id="Path_74163" data-name="Path 74163" d="M40.335,21.731H35.023l0,0-7.3-7.3a1.475,1.475,0,0,0-2.463,1.443L21.73,21.731H15.866A1.868,1.868,0,0,0,14,23.6V38.318a1.868,1.868,0,0,0,1.866,1.866h1l-.987,1.465a.35.35,0,0,0,.29.545H17.93a.35.35,0,0,0,.29-.154l1.25-1.856H36.73l1.25,1.856a.35.35,0,0,0,.29.154h1.761a.35.35,0,0,0,.29-.545l-.987-1.465h1A1.868,1.868,0,0,0,42.2,38.318V23.6a1.868,1.868,0,0,0-1.866-1.866ZM26.127,14.92a.777.777,0,0,1,1.1,0l7.3,7.3a.753.753,0,0,1,.065.074.776.776,0,0,1-1.163,1.023l-7.3-7.3a.776.776,0,0,1,0-1.1Zm-1.586,14.7,2.714,2.714a.841.841,0,1,1-1.189,1.189l-3.01-3.009Zm-.125-.741h0l-.629.379-2.354,1.416-2.665-2.665,6.9-11.468L32.9,23.78Zm-6.906.5.817-.817,1.279,1.279,1.277,1.278-.817.817Zm-.494.5,2.555,2.555a1.807,1.807,0,0,1-2.555-2.555Zm-1.15-7.444h5.444l-3.26,5.42-1.5,1.5A2.507,2.507,0,0,0,20.1,32.892l.214-.214L21.595,31.4l.844-.507,3.133,3.132a1.54,1.54,0,1,0,2.178-2.178l-2.591-2.591,8.418-5.063a1.474,1.474,0,0,0,1.834-1.759h4.924A1.168,1.168,0,0,1,41.5,23.6V35.874H14.7V23.6A1.168,1.168,0,0,1,15.866,22.43ZM41.5,38.318a1.168,1.168,0,0,1-1.166,1.166H15.866A1.168,1.168,0,0,1,14.7,38.318V36.573H41.5ZM17.744,41.495h-.918l.883-1.311h.918Zm21.63,0h-.918l-.883-1.311h.918Z"/>
    <path id="Path_74164" data-name="Path 74164" d="M245.783,256.326h-1.606a.35.35,0,1,0,0,.7h1.606a1.1,1.1,0,1,0,0-2.2h-.854a.4.4,0,0,1,0-.8h1.606a.35.35,0,1,0,0-.7h-1.606a1.1,1.1,0,0,0,0,2.2h.854a.4.4,0,1,1,0,.8Zm-8.414.7a.35.35,0,0,0,.35-.35v-1.153h1.658v1.153a.35.35,0,0,0,.7,0v-1.826a1.528,1.528,0,1,0-3.056,0v1.826A.35.35,0,0,0,237.37,257.025Zm1.179-3.005a.829.829,0,0,1,.827.8h-1.655a.829.829,0,0,1,.828-.8Zm2.225,3.005h.854a1.852,1.852,0,1,0,0-3.7h-.854a.35.35,0,0,0-.35.35v3.005A.35.35,0,0,0,240.773,257.025Zm.35-3.005h.5a1.153,1.153,0,1,1,0,2.306h-.5Zm-6.173,10.694a1.3,1.3,0,1,0-1.3-1.3A1.3,1.3,0,0,0,234.95,264.714Zm0-1.905a.6.6,0,1,1-.6.6.6.6,0,0,1,.6-.6Z" transform="translate(-206.851 -225.383)"/>
  </g>
</svg>
