<svg xmlns="http://www.w3.org/2000/svg" width="24.733" height="23.909" viewBox="0 0 24.733 23.909">
  <g id="Group_16430" data-name="Group 16430" transform="translate(-2 -1.5)">
    <path id="Path_74207" data-name="Path 74207" d="M36.832,9.21H35.183a.412.412,0,1,0,0,.824h1.649a.412.412,0,1,0,0-.824Zm1.237-1.649H35.183a.412.412,0,1,0,0,.824h2.886a.412.412,0,1,0,0-.824ZM30.649,5.5H29.412a.412.412,0,0,0,0,.824h1.237a.412.412,0,0,0,0-.824Z" transform="translate(-15.87 -2.351)"/>
    <path id="Path_74208" data-name="Path 74208" d="M25.5,3.149h-7.42V2.737A1.215,1.215,0,0,0,16.84,1.5H12.718a1.2,1.2,0,0,0-1.237,1.237V4.8a1.24,1.24,0,0,0,1.237,1.237h.66l.948.948L6.081,8.549a3.465,3.465,0,0,0-1.9,1.278H4.061C3.36,9.95,2,10.775,2,13.083s1.319,3.133,2.061,3.256h.124a3.438,3.438,0,0,0,1.154.989c0,.041.041.082.082.124l5.771,7.42c.041.041.082.082.124.082a1.9,1.9,0,0,0,1.237.453,1.847,1.847,0,0,0,1.855-1.855,1.988,1.988,0,0,0-.453-1.237c0-.041-.041-.041-.041-.082L10.78,18.442l8.492,1.608h.289c1.979,0,3.5-3.092,3.5-7.008a15.386,15.386,0,0,0-.206-2.473l.824-.824H25.5a1.24,1.24,0,0,0,1.237-1.237V4.386A1.2,1.2,0,0,0,25.5,3.149ZM17.17,15.928a12.079,12.079,0,0,1-.33-2.886,12.079,12.079,0,0,1,.33-2.886h.082c.907,0,1.649,1.319,1.649,2.886s-.742,2.886-1.649,2.886ZM13.542,5.21h-.824a.413.413,0,0,1-.412-.412V2.737a.368.368,0,0,1,.412-.412H16.84a.389.389,0,0,1,.412.412V4.8a.389.389,0,0,1-.412.412H15.6a.389.389,0,0,0-.412.412V6.694l-1.36-1.36A.374.374,0,0,0,13.542,5.21Zm2.473.824h.824v.453l-.824.165Zm-.7,1.937A.374.374,0,0,0,15.6,8.1a.248.248,0,0,0,.165-.041.4.4,0,0,0,.247-.371V7.477l.824-.165V8.466A12.2,12.2,0,0,0,16.015,13a10.007,10.007,0,0,0,1.566,5.853l-8-1.484h0a9.442,9.442,0,0,1-.948-4.328,9.442,9.442,0,0,1,.948-4.328h0l5.441-1.031Zm-12.49,5.07a2.654,2.654,0,0,1,.742-2.1,6.077,6.077,0,0,0-.33,2.1,5.829,5.829,0,0,0,.33,2.061A2.486,2.486,0,0,1,2.824,13.042Zm1.237,0c0-3.3,2.061-3.71,2.144-3.71l2.35-.453a11.019,11.019,0,0,0-.783,4.163,11.019,11.019,0,0,0,.783,4.163l-2.391-.453S4.061,16.381,4.061,13.042ZM9.5,18.236l3.627,4.452c0,.041.041.082.082.124a.993.993,0,0,1,.289.742,1.021,1.021,0,0,1-1.031,1.031,1.185,1.185,0,0,1-.742-.289l-.041-.041-5.07-6.6,2.886.577Zm12.7-5.194c0,3.71-1.4,6.183-2.679,6.183-.783,0-1.608-.907-2.144-2.473,1.319-.124,2.35-1.69,2.35-3.71a4.226,4.226,0,0,0-1.319-3.3h2.556v1.649a.361.361,0,0,0,.247.371.248.248,0,0,0,.165.041.374.374,0,0,0,.289-.124l.412-.412A11.965,11.965,0,0,1,22.2,13.042Zm3.71-4.534a.413.413,0,0,1-.412.412H23.435a.374.374,0,0,0-.289.124l-1.36,1.36V9.332a.389.389,0,0,0-.412-.412h-3.3a.389.389,0,0,1-.412-.412V5.7a1.181,1.181,0,0,0,.412-.907V3.973H25.5a.368.368,0,0,1,.412.412Z"/>
  </g>
</svg>
