<svg xmlns="http://www.w3.org/2000/svg" width="25.521" height="21.5" viewBox="0 0 25.521 21.5">
  <g id="Group_192" data-name="Group 192" transform="translate(0.25 0.25)">
    <line id="Line_1" data-name="Line 1" x2="25.021" transform="translate(0 16.755)" fill="none" stroke="#000" stroke-linecap="round" stroke-linejoin="round" stroke-miterlimit="10" stroke-width="0.5"/>
    <path id="Path_15" data-name="Path 15" d="M7,49.5c.76,0,.76.447,1.474.447.76,0,.76-.447,1.474-.447.76,0,.76.447,1.474.447.76,0,.76-.447,1.474-.447.76,0,.76.447,1.474.447.76,0,.76-.447,1.474-.447.76,0,.76.447,1.474.447.76,0,.76-.447,1.474-.447.76,0,.76.447,1.474.447.76,0,.76-.447,1.474-.447.76,0,.76.447,1.474.447.76,0,.76-.447,1.474-.447.76,0,.76.447,1.474.447.76,0,.76-.447,1.474-.447.76,0,.76.447,1.474.447M7,51.511c.76,0,.76.447,1.474.447.76,0,.76-.447,1.474-.447.76,0,.76.447,1.474.447.76,0,.76-.447,1.474-.447.76,0,.76.447,1.474.447.76,0,.76-.447,1.474-.447.76,0,.76.447,1.474.447.76,0,.76-.447,1.474-.447.76,0,.76.447,1.474.447.76,0,.76-.447,1.474-.447.76,0,.76.447,1.474.447.76,0,.76-.447,1.474-.447.76,0,.76.447,1.474.447.76,0,.76-.447,1.474-.447.76,0,.76.447,1.474.447" transform="translate(-5.66 -30.957)" fill="none" stroke="#000" stroke-linecap="round" stroke-linejoin="round" stroke-miterlimit="10" stroke-width="0.5"/>
    <path id="Path_16" data-name="Path 16" d="M12.809,15.447V28.4H7.447V15.447h5.362m0-.447H7.447A.422.422,0,0,0,7,15.447V28.4a.422.422,0,0,0,.447.447h5.362a.422.422,0,0,0,.447-.447V15.447A.422.422,0,0,0,12.809,15Z" transform="translate(-5.66 -11.872)"/>
    <path id="Path_17" data-name="Path 17" d="M11.5,40.851V37.5h2.234v3.351" transform="translate(-8.149 -24.319)" fill="none" stroke="#000" stroke-linecap="round" stroke-linejoin="round" stroke-miterlimit="10" stroke-width="0.5"/>
    <path id="Path_18" data-name="Path 18" d="M10.5,13.894V13h3.128v.894" transform="translate(-7.596 -10.766)" fill="none" stroke="#000" stroke-linecap="round" stroke-linejoin="round" stroke-miterlimit="10" stroke-width="0.5"/>
    <line id="Line_2" data-name="Line 2" y2="1.668" transform="translate(4.17 0.983)" fill="none" stroke="#000" stroke-linecap="round" stroke-linejoin="round" stroke-miterlimit="10" stroke-width="0.5"/>
    <line id="Line_3" data-name="Line 3" x2="3.128" transform="translate(2.904 4.691)" fill="none" stroke="#000" stroke-linecap="round" stroke-linejoin="round" stroke-miterlimit="10" stroke-width="0.5"/>
    <line id="Line_4" data-name="Line 4" x2="3.128" transform="translate(2.904 6.032)" fill="none" stroke="#000" stroke-linecap="round" stroke-linejoin="round" stroke-miterlimit="10" stroke-width="0.5"/>
    <line id="Line_5" data-name="Line 5" x2="3.128" transform="translate(2.904 7.372)" fill="none" stroke="#000" stroke-linecap="round" stroke-linejoin="round" stroke-miterlimit="10" stroke-width="0.5"/>
    <line id="Line_6" data-name="Line 6" x2="3.128" transform="translate(2.904 8.713)" fill="none" stroke="#000" stroke-linecap="round" stroke-linejoin="round" stroke-miterlimit="10" stroke-width="0.5"/>
    <line id="Line_7" data-name="Line 7" x2="3.128" transform="translate(2.904 10.053)" fill="none" stroke="#000" stroke-linecap="round" stroke-linejoin="round" stroke-miterlimit="10" stroke-width="0.5"/>
    <line id="Line_8" data-name="Line 8" x2="3.128" transform="translate(2.904 11.394)" fill="none" stroke="#000" stroke-linecap="round" stroke-linejoin="round" stroke-miterlimit="10" stroke-width="0.5"/>
    <path id="Path_19" data-name="Path 19" d="M25.5,24.532V8a5.222,5.222,0,0,1,3.128,1.34,4.954,4.954,0,0,1,1.34,2.234,6.446,6.446,0,0,0-1.34,4.915,6.245,6.245,0,0,0,.894,2.234v5.809" transform="translate(-15.894 -8)" fill="none" stroke="#000" stroke-linecap="round" stroke-linejoin="round" stroke-miterlimit="10" stroke-width="0.5"/>
    <line id="Line_9" data-name="Line 9" x2="1.787" transform="translate(10.723 2.457)" fill="none" stroke="#000" stroke-linecap="round" stroke-linejoin="round" stroke-miterlimit="10" stroke-width="0.5"/>
    <line id="Line_10" data-name="Line 10" x2="1.787" transform="translate(10.723 3.798)" fill="none" stroke="#000" stroke-linecap="round" stroke-linejoin="round" stroke-miterlimit="10" stroke-width="0.5"/>
    <line id="Line_11" data-name="Line 11" x2="3.128" transform="translate(9.785 5.585)" fill="none" stroke="#000" stroke-linecap="round" stroke-linejoin="round" stroke-miterlimit="10" stroke-width="0.5"/>
    <line id="Line_12" data-name="Line 12" y2="4.691" transform="translate(11.394 5.809)" fill="none" stroke="#000" stroke-linecap="round" stroke-linejoin="round" stroke-miterlimit="10" stroke-width="0.5"/>
    <line id="Line_13" data-name="Line 13" x2="3.574" transform="translate(9.83 10.5)" fill="none" stroke="#000" stroke-linecap="round" stroke-linejoin="round" stroke-miterlimit="10" stroke-width="0.5"/>
    <line id="Line_14" data-name="Line 14" x2="3.336" transform="translate(10.009 11.826)" fill="none" stroke="#000" stroke-linecap="round" stroke-linejoin="round" stroke-miterlimit="10" stroke-width="0.5"/>
    <path id="Path_20" data-name="Path 20" d="M27.5,41.681V39h2.234v2.681" transform="translate(-17 -25.149)" fill="none" stroke="#000" stroke-linecap="round" stroke-linejoin="round" stroke-miterlimit="10" stroke-width="0.5"/>
    <path id="Path_21" data-name="Path 21" d="M46.5,26.191v-13.4L51.862,11V26.191" transform="translate(-27.511 -9.66)" fill="none" stroke="#000" stroke-linecap="round" stroke-linejoin="round" stroke-miterlimit="10" stroke-width="0.5"/>
    <line id="Line_15" data-name="Line 15" y2="1.34" transform="translate(20.33 3.798)" fill="none" stroke="#000" stroke-linecap="round" stroke-linejoin="round" stroke-miterlimit="10" stroke-width="0.5"/>
    <line id="Line_16" data-name="Line 16" y2="1.34" transform="translate(21.67 3.798)" fill="none" stroke="#000" stroke-linecap="round" stroke-linejoin="round" stroke-miterlimit="10" stroke-width="0.5"/>
    <line id="Line_17" data-name="Line 17" y2="1.34" transform="translate(23.011 3.798)" fill="none" stroke="#000" stroke-linecap="round" stroke-linejoin="round" stroke-miterlimit="10" stroke-width="0.5"/>
    <line id="Line_18" data-name="Line 18" y2="1.34" transform="translate(20.33 6.479)" fill="none" stroke="#000" stroke-linecap="round" stroke-linejoin="round" stroke-miterlimit="10" stroke-width="0.5"/>
    <line id="Line_19" data-name="Line 19" y2="1.34" transform="translate(21.67 6.479)" fill="none" stroke="#000" stroke-linecap="round" stroke-linejoin="round" stroke-miterlimit="10" stroke-width="0.5"/>
    <line id="Line_20" data-name="Line 20" y2="1.34" transform="translate(23.011 6.479)" fill="none" stroke="#000" stroke-linecap="round" stroke-linejoin="round" stroke-miterlimit="10" stroke-width="0.5"/>
    <g id="Group_190" data-name="Group 190" transform="translate(20.33 9.16)">
      <line id="Line_21" data-name="Line 21" y2="1.34" transform="translate(0 0)" fill="none" stroke="#000" stroke-linecap="round" stroke-linejoin="round" stroke-miterlimit="10" stroke-width="0.5"/>
      <line id="Line_22" data-name="Line 22" y2="1.34" transform="translate(1.34 0)" fill="none" stroke="#000" stroke-linecap="round" stroke-linejoin="round" stroke-miterlimit="10" stroke-width="0.5"/>
      <line id="Line_23" data-name="Line 23" y2="1.34" transform="translate(2.681 0)" fill="none" stroke="#000" stroke-linecap="round" stroke-linejoin="round" stroke-miterlimit="10" stroke-width="0.5"/>
    </g>
    <g id="Group_191" data-name="Group 191" transform="translate(20.33 11.84)">
      <line id="Line_24" data-name="Line 24" y2="1.34" fill="none" stroke="#000" stroke-linecap="round" stroke-linejoin="round" stroke-miterlimit="10" stroke-width="0.5"/>
      <line id="Line_25" data-name="Line 25" y2="1.34" transform="translate(1.34)" fill="none" stroke="#000" stroke-linecap="round" stroke-linejoin="round" stroke-miterlimit="10" stroke-width="0.5"/>
      <line id="Line_26" data-name="Line 26" y2="1.34" transform="translate(2.681)" fill="none" stroke="#000" stroke-linecap="round" stroke-linejoin="round" stroke-miterlimit="10" stroke-width="0.5"/>
    </g>
    <line id="Line_27" data-name="Line 27" y2="2.636" transform="translate(16.309 13.851)" fill="none" stroke="#000" stroke-linecap="round" stroke-linejoin="round" stroke-miterlimit="10" stroke-width="0.5"/>
    <path id="Path_22" data-name="Path 22" d="M40.128,36.013a1.582,1.582,0,0,1-3.128,0c0-.849.67-2.413,1.564-2.413S40.128,35.164,40.128,36.013Z" transform="translate(-22.255 -22.162)" fill="none" stroke="#000" stroke-linecap="round" stroke-linejoin="round" stroke-miterlimit="10" stroke-width="0.5"/>
  </g>
</svg>
