<svg id="CATEGORIES" xmlns="http://www.w3.org/2000/svg" width="16.467" height="16.467" viewBox="0 0 16.467 16.467">
  <path id="Path_23" data-name="Path 23" d="M5.623,9.328A3.673,3.673,0,0,1,2,5.623,3.6,3.6,0,0,1,5.623,2a3.664,3.664,0,0,1,0,7.328Zm0-5.516A1.811,1.811,0,1,0,7.434,5.623,1.775,1.775,0,0,0,5.623,3.811Zm0,14.655a3.623,3.623,0,1,1,0-7.245,3.655,3.655,0,0,1,3.623,3.623A3.6,3.6,0,0,1,5.623,18.467Zm0-5.516a1.811,1.811,0,1,0,1.811,1.811A1.775,1.775,0,0,0,5.623,12.95Zm9.221-3.623a3.6,3.6,0,0,1-3.623-3.623,3.655,3.655,0,0,1,3.623-3.623,3.585,3.585,0,0,1,3.623,3.54A3.727,3.727,0,0,1,14.844,9.328Zm0-5.516a1.811,1.811,0,1,0,1.811,1.811A1.827,1.827,0,0,0,14.844,3.811Zm0,14.655a3.6,3.6,0,0,1-3.623-3.623,3.623,3.623,0,1,1,3.623,3.623Zm0-5.516a1.811,1.811,0,1,0,1.811,1.811A1.827,1.827,0,0,0,14.844,12.95Z" transform="translate(-2 -2)"/>
</svg>
