<svg xmlns="http://www.w3.org/2000/svg" width="421.588" height="310.625" viewBox="0 0 421.588 310.625">
  <g id="Group_16497" data-name="Group 16497" transform="translate(-217.542 -258.278)">
    <path id="Path_74241" data-name="Path 74241" d="M590.712,493.225c-30.335-22.092-38.361-34.634-38.361-34.634,116.322-139.1-118.73-184.515-164.524-88.875-19.089,39.867-57.96,39.018-124.066,51.542-61.053,11.567-59.149,74.388-8.823,123.546H618.845C627.385,515.172,604.556,503.307,590.712,493.225Z" transform="translate(0 -22.913)" fill="#2a94f4" opacity="0.05"/>
    <path id="Path_74242" data-name="Path 74242" d="M394.476,337.347a80.213,80.213,0,0,0-5.363-6.371c-3.671-3.606-7.88-9.979-21.343-5.282a29.146,29.146,0,0,0-3.068,1.337c-1.187.574-4.863.589-8.628-2.825-5.983-5.426-8.323-9.521-16.52-9.648-9.537-.148-11.038,13.432-18.451,16.908-4.717,2.212-17.164,4.411-19.738,5.391l93.111.49Z" transform="translate(-31.602 -21.218)" fill="#2a94f4" opacity="0.1"/>
    <path id="Path_74243" data-name="Path 74243" d="M276.385,577.408c.629.039,16.5-1.867,17.22-16.625s-9.392-18.413-6.73-34.842,9.644-21.15-6-33.141c0,0-6.978-4.828-7.3-11.6-.389-8.107-14.384-17.517-23.772-12.109s-7.181,13.764.857,27.285.292,15.881-1.253,20.252-5.127,8.957,3.077,19.405-1.57,23.2,5.414,33.207C257.892,569.24,264.02,576.645,276.385,577.408Z" transform="translate(-9.839 -78.875)" fill="#2a94f4"/>
    <g id="Group_16489" data-name="Group 16489" transform="translate(250.294 412.434)">
      <path id="Path_74244" data-name="Path 74244" d="M286.444,614.44a.67.67,0,0,1-.493-.774c8.525-45.046-8.853-106.476-9.029-107.091a.67.67,0,0,1,1.288-.369c.178.618,17.641,62.355,9.058,107.71a.67.67,0,0,1-.824.525Z" transform="translate(-272.67 -505.721)" fill="#0b4870"/>
      <path id="Path_74245" data-name="Path 74245" d="M280.328,535.938a.671.671,0,0,1-.447-.923,89.961,89.961,0,0,0,5.031-14.838.67.67,0,1,1,1.311.28,91.346,91.346,0,0,1-5.119,15.1A.671.671,0,0,1,280.328,535.938Zm2.292,13.627a.67.67,0,0,1-.262-.133c-3.369-2.786-11.842-8.031-11.928-8.084a.67.67,0,1,1,.7-1.139c.351.217,8.637,5.347,12.077,8.191a.669.669,0,0,1-.592,1.166Zm1.9,13.268a.67.67,0,0,1-.434-.953l4.723-9.329a.67.67,0,1,1,1.2.606l-4.723,9.329a.67.67,0,0,1-.762.346Z" transform="translate(-270.113 -510.971)" fill="#0b4870"/>
    </g>
    <g id="Group_16490" data-name="Group 16490" transform="translate(406.8 328.415)">
      <path id="Path_74246" data-name="Path 74246" d="M525.761,392.591l-.586-1.673-.586,1.673a5.849,5.849,0,0,1-3.258,3.3,5.855,5.855,0,0,1,3.258,3.3l.586,1.673.586-1.673a5.851,5.851,0,0,1,3.258-3.3A5.851,5.851,0,0,1,525.761,392.591ZM624,373.664l-.984-2.805-.983,2.805a9.813,9.813,0,0,1-5.463,5.54,9.812,9.812,0,0,1,5.463,5.54l.983,2.805.984-2.805a9.813,9.813,0,0,1,5.463-5.54A9.816,9.816,0,0,1,624,373.664Z" transform="translate(-521.33 -370.859)" fill="#fff"/>
    </g>
    <g id="Group_16491" data-name="Group 16491" transform="translate(298.613 371.843)" opacity="0.5">
      <path id="Path_74247" data-name="Path 74247" d="M608.162,575.943H361.444v-133.2a2.171,2.171,0,0,1,2.171-2.171H605.991a2.171,2.171,0,0,1,2.171,2.171v133.2ZM619.7,590.256H349.908a2.235,2.235,0,0,1-2.235-2.235V575.944H621.934v12.077A2.237,2.237,0,0,1,619.7,590.256Z" transform="translate(-347.673 -440.567)" fill="#2a94f4"/>
      <path id="Path_74248" data-name="Path 74248" d="M516.339,657.866l2.888,2.777a6.149,6.149,0,0,0,4.263,1.718h50.226a6.148,6.148,0,0,0,4.623-2.094l2.106-2.4Z" transform="translate(-411.261 -522.49)" fill="#fff"/>
      <path id="Path_74249" data-name="Path 74249" d="M384.511,454.942h228.36V573.611H384.511Z" transform="translate(-361.561 -445.986)" fill="#f7f7f7"/>
    </g>
    <path id="Path_74250" data-name="Path 74250" d="M246.876,680.841H650" transform="translate(-11.059 -159.309)" fill="none" stroke="#102236" stroke-linecap="round" stroke-linejoin="round" stroke-miterlimit="10" stroke-width="0.375"/>
    <circle id="Ellipse_1042" data-name="Ellipse 1042" cx="19.983" cy="19.983" r="19.983" transform="translate(292.352 355.835)" fill="#ffbe55"/>
    <path id="Path_74253" data-name="Path 74253" d="M359.466,453.623a16.907,16.907,0,1,1,16.907-16.907A16.927,16.927,0,0,1,359.466,453.623Z" transform="translate(-47.132 -60.898)" fill="#ffbe55"/>
    <path id="Path_74254" data-name="Path 74254" d="M374.264,440.848a3.377,3.377,0,0,0-6.631-.151l-1.291.155a4.164,4.164,0,0,1-3.439-1.189l-.919-.919a3.378,3.378,0,1,0-1.558,1.558l.635.635a4.162,4.162,0,0,1,1.129,3.8l-.208.982a3.38,3.38,0,1,0,2.156.456,4.162,4.162,0,0,1,3.576-3.272l.181-.022a3.377,3.377,0,0,0,6.369-2.037Z" transform="translate(-52.037 -66.209)" fill="#fff"/>
    <path id="Path_74255" data-name="Path 74255" d="M550.715,725.612H590.68v5.7H550.715Z" transform="translate(-125.608 -176.187)" fill="#ffbe55"/>
    <path id="Path_74256" data-name="Path 74256" d="M570.7,712.641c-11.036,0-19.983,6.17-19.983,13.779s8.947,13.78,19.983,13.78,19.982-6.17,19.982-13.78S581.734,712.641,570.7,712.641Z" transform="translate(-125.608 -171.297)" fill="#ffbe55"/>
    <ellipse id="Ellipse_1043" data-name="Ellipse 1043" cx="19.983" cy="13.78" rx="19.983" ry="13.78" transform="translate(425.107 535.644)" fill="#ffbe55"/>
    <path id="Path_74257" data-name="Path 74257" d="M572.558,730.216c-9.323,0-16.907-5.23-16.907-11.659s7.585-11.659,16.907-11.659,16.907,5.23,16.907,11.659S581.882,730.216,572.558,730.216Z" transform="translate(-127.469 -169.132)" fill="#ffbe55"/>
    <path id="Path_74258" data-name="Path 74258" d="M587.356,721.407c-.292-1.2-1.946-2.063-3.706-1.928a3.177,3.177,0,0,0-2.925,1.823l-1.291.107a5.4,5.4,0,0,1-3.439-.82l-.92-.634a1.832,1.832,0,0,0-.666-2.68,4.591,4.591,0,0,0-4.641-.064,1.882,1.882,0,0,0-.117,3.372,4.566,4.566,0,0,0,3.866.446l.635.438a2.348,2.348,0,0,1,1.129,2.623l-.208.678a3.155,3.155,0,0,0-2.893,1.847c-.352,1.2.741,2.409,2.455,2.717,1.879.338,3.764-.477,4.161-1.772.306-1-.367-1.981-1.568-2.478.368-1.2,1.807-2.11,3.576-2.256l.181-.015a3.867,3.867,0,0,0,3.44,1.3c1.907-.158,3.251-1.381,2.93-2.7Z" transform="translate(-132.374 -172.795)" fill="#fff"/>
    <path id="Path_74259" data-name="Path 74259" d="M510.481,517.727H420.972a.643.643,0,0,1-.642-.642V488.646a.642.642,0,0,1,.642-.642H510.48a.643.643,0,0,1,.642.642v28.438a.642.642,0,0,1-.642.642Z" transform="translate(-76.452 -86.608)" fill="#b8b8b8" opacity="0.16"/>
    <path id="Path_74260" data-name="Path 74260" d="M523.95,504.4H438.1a.629.629,0,0,1-.629-.629V475.3a.629.629,0,0,1,.629-.629H523.95a.629.629,0,0,1,.629.629v28.465A.63.63,0,0,1,523.95,504.4Z" transform="translate(-82.913 -81.582)" fill="#ffbe55"/>
    <g id="Group_16492" data-name="Group 16492" transform="translate(365.037 402.2)">
      <path id="Path_74261" data-name="Path 74261" d="M516.739,491.224H455.258a.965.965,0,1,1,0-1.93h61.481a.965.965,0,1,1,0,1.93ZM483.666,500.8H455.258a.965.965,0,1,1,0-1.93h28.408a.965.965,0,0,1,0,1.93Z" transform="translate(-454.293 -489.294)" fill="#fff"/>
    </g>
    <path id="Path_74262" data-name="Path 74262" d="M452.793,598.487H369.778V567.224a.639.639,0,0,1,.639-.639h82.376a.639.639,0,0,1,.639.639v30.624A.639.639,0,0,1,452.793,598.487Z" transform="translate(-57.394 -116.233)" fill="#b8b8b8" opacity="0.16"/>
    <path id="Path_74263" data-name="Path 74263" d="M454.944,584.179H337.824a.761.761,0,0,1-.761-.761v-30.38a.761.761,0,0,1,.761-.761H454.944a.761.761,0,0,1,.761.761v30.38a.76.76,0,0,1-.761.761Z" transform="translate(-45.06 -110.839)" fill="#ffbe55"/>
    <g id="Group_16493" data-name="Group 16493" transform="translate(329.553 451.215)">
      <path id="Path_74264" data-name="Path 74264" d="M464.358,570.042H398.371a1.035,1.035,0,1,1,0-2.071h65.986a1.035,1.035,0,1,1,0,2.071Zm-35.5,10.278H398.371a1.035,1.035,0,0,1,0-2.071h30.489a1.035,1.035,0,0,1,0,2.071Z" transform="translate(-397.336 -567.971)" fill="#fff"/>
    </g>
    <path id="Path_74265" data-name="Path 74265" d="M370.941,580.952H351.85a.677.677,0,0,1-.677-.677V563.061a.677.677,0,0,1,.677-.677h19.09a.677.677,0,0,1,.677.677v17.213A.677.677,0,0,1,370.941,580.952Z" transform="translate(-50.38 -114.65)" fill="#fff"/>
    <path id="Path_74266" data-name="Path 74266" d="M667.005,601.13H580.231a.838.838,0,0,1-.838-.838V550.054a.838.838,0,0,1,.838-.838h86.774a.838.838,0,0,1,.838.838v50.238A.838.838,0,0,1,667.005,601.13Z" transform="translate(-136.42 -109.685)" fill="#ebedfd"/>
    <g id="Group_16494" data-name="Group 16494" transform="translate(457.08 451.148)">
      <path id="Path_74267" data-name="Path 74267" d="M655.881,567.864h.615v30.8h-.615Zm-9.3,0h.615v30.8h-.615Zm-9.3,0h.616v30.8h-.616Zm-9.3,0h.615v30.8h-.615Zm-9.3,0h.616v30.8h-.616Zm-9.3,0h.615v30.8H609.4Zm-7.361,34.349H663.1v.616H602.036Z" transform="translate(-602.036 -567.864)" fill="#fff"/>
    </g>
    <path id="Path_74268" data-name="Path 74268" d="M624,600.873a3.161,3.161,0,0,1-.753-.093c-3.542-.871-5.37-4.125-6.84-6.74-1.025-1.824-1.992-3.548-3.051-3.548-3.45,0-5.62,4.075-7.366,7.349q-.461.881-.955,1.744a1.169,1.169,0,1,1-2.02-1.177c.288-.5.59-1.062.912-1.667,1.931-3.625,4.576-8.589,9.429-8.589,2.428,0,3.721,2.3,5.091,4.74s2.8,4.986,5.358,5.615a.6.6,0,0,0,.534-.084c1.511-1,2.389-6.285,3.094-10.534,1.06-6.394,1.9-11.462,5.037-11.462.041,0,.084,0,.127,0,3.152.134,4.1,4.243,5.095,8.594.833,3.633,1.777,7.752,3.818,8.05a4.75,4.75,0,0,0,4.54-1.5,6.159,6.159,0,0,1,4.991-1.917c2.234.206,3.5,1.677,4.611,2.975,1.525,1.774,2.951,3.448,7.039,3.036a1.187,1.187,0,0,1,1.282,1.046A1.171,1.171,0,0,1,662.93,598c-5.295.538-7.374-1.89-9.048-3.839-1.126-1.311-1.822-2.058-3.053-2.172-1.518-.141-2.239.488-3.244,1.357a7.033,7.033,0,0,1-6.412,2.042c-3.623-.53-4.708-5.262-5.758-9.84-.688-3-1.543-6.723-2.915-6.783h-.014c-1.164,0-2.23,6.416-2.741,9.506-.9,5.424-1.751,10.545-4.115,12.1a2.931,2.931,0,0,1-1.627.494Z" transform="translate(-145.266 -119.945)" fill="#ffbe55"/>
    <g id="Group_16495" data-name="Group 16495" transform="translate(322.796 535.319)">
      <path id="Path_74269" data-name="Path 74269" d="M461.808,714.337l-60.286-9.5a.939.939,0,0,1,.293-1.855l60.286,9.5a.94.94,0,0,1-.293,1.855ZM441.571,718.4H387.325a.835.835,0,1,1,0-1.67h54.247a.835.835,0,1,1,0,1.67Z" transform="translate(-386.49 -702.97)" fill="#ffbe55"/>
    </g>
    <path id="Path_74270" data-name="Path 74270" d="M606.705,268.286a36.761,36.761,0,0,1,2.691-2.8c1.842-1.584,3.953-4.383,10.706-2.319a15.67,15.67,0,0,1,1.539.587,4.962,4.962,0,0,0,4.329-1.241c3-2.383,4.175-4.181,8.286-4.237,4.785-.065,5.537,5.9,9.255,7.425,2.367.971,8.61,1.937,9.9,2.367Z" transform="translate(-146.717)" fill="#2a94f4" opacity="0.1"/>
    <path id="Path_74271" data-name="Path 74271" d="M793.386,703.144s2.379,7.018,2.868,8.181a6.093,6.093,0,0,0,2.091,2.243,3.988,3.988,0,0,1,.746,1.058,1.13,1.13,0,0,1,.024,1.015c-2.491,5.785-9.236,7.794-9.367,7.343-.235-.815.834-2.37,2.265-3.1a4.766,4.766,0,0,0,2.481-3.843,7.479,7.479,0,0,0-.617-3.744l-2.413-5.261,1.922-3.892Zm-9.985,8.07-2.055,7.243a9.636,9.636,0,0,0,.527,6.675,2.1,2.1,0,0,1-1.308,2.909c-3.993,1.181-11.732,3.419-12.054,3.113-1.645-1.558,3.05-3.716,6.561-6.065,2.368-1.584,3.677-9.5,4.216-15.6l3.566,1.11a.84.84,0,0,1,.548.612Z" transform="translate(-207.59 -167.717)" fill="#fa968c"/>
    <path id="Path_74272" data-name="Path 74272" d="M775.718,682.541a26.551,26.551,0,0,1-5.077.63,1.048,1.048,0,0,0-.526.182c-1.629,1.125-2.484,2.3-1.612,3.125.351.332,9.445-2.335,12.993-3.392a1.263,1.263,0,0,0,.78-1.749l-.594-1.278A25.976,25.976,0,0,1,775.718,682.541Zm9.1-97.813c4.28.827,7.68,6,6.616,11.51-.611,3.165-4.209,14.42-7.972,23.265a10.485,10.485,0,0,0,1.042,10.319,8.984,8.984,0,0,1,.9,1.481c1.223,2.581,5.645,17.676,8.176,27.725a5.665,5.665,0,0,1-2.177,3.393c-4.948-8.688-12.9-24.487-14.2-27.233a47.161,47.161,0,0,1-2.059-4.929c-3.247-4.829-1.141-30.7-.154-35.807,1.065-5.508,5.552-10.551,9.832-9.725Z" transform="translate(-207.584 -123.04)" fill="#0b4870"/>
    <ellipse id="Ellipse_1044" data-name="Ellipse 1044" cx="8.577" cy="6.649" rx="8.577" ry="6.649" transform="matrix(0.055, -0.998, 0.998, 0.055, 570.68, 438.776)" fill="#0b4870"/>
    <path id="Path_74273" data-name="Path 74273" d="M794.248,527.511a9.231,9.231,0,0,1,18.025-2,3.267,3.267,0,0,0,2.994,2.277,8.149,8.149,0,0,1,1.744.263,8.211,8.211,0,0,1,2.164,14.984A4.367,4.367,0,0,0,817.239,546a10.747,10.747,0,1,1-18.173-9.652A9.231,9.231,0,0,1,794.248,527.511Zm-.916-12.346s-3.865,2.145-3.585,5.337c0,0-1.917-1.523-2.1-6.414C787.519,510.7,793.331,515.165,793.331,515.165Z" transform="translate(-214.931 -95.963)" fill="#0b4870"/>
    <path id="Path_74274" data-name="Path 74274" d="M767.893,540.307a8.8,8.8,0,0,1-.991,3.557,6.645,6.645,0,0,1-1.344,1.668,6.507,6.507,0,0,1-1.8,1.091,8.658,8.658,0,0,1-3.53.533,15.6,15.6,0,0,1-3.042-.44,31.444,31.444,0,0,1-5.336-1.891q-2.5-1.115-4.871-2.472a106.927,106.927,0,0,1-9.046-5.808,92.3,92.3,0,0,1-8.4-6.636.713.713,0,0,1,.892-1.111l.009.007c1.409,1.017,2.881,1.975,4.365,2.9s2.978,1.841,4.492,2.719a104.047,104.047,0,0,0,9.271,4.8c1.578.7,3.159,1.371,4.753,1.934a28.22,28.22,0,0,0,4.748,1.29,11.194,11.194,0,0,0,2.207.176,4.048,4.048,0,0,0,1.654-.337,1.437,1.437,0,0,0,.705-.72,4.182,4.182,0,0,0,.285-1.539,2.494,2.494,0,1,1,4.98.234l0,.041Z" transform="translate(-192.934 -101.937)" fill="#fab9af"/>
    <path id="Path_74275" data-name="Path 74275" d="M784.876,561c-1.247-4.586-3.727-14.29-3.3-17.393a3.85,3.85,0,0,1,4.032-3.315l13,.717a3.986,3.986,0,0,1,3.769,4.084c-.1,3.772-2.306,12.246-3.529,16.678L784.876,561Z" transform="translate(-212.626 -106.319)" fill="#ffbe55"/>
    <path id="Path_74276" data-name="Path 74276" d="M785.829,669.2a.674.674,0,0,1-.279-.613c.8-9.547,2.056-21.7,2.4-24.029.039-.266.085-.528.138-.784-1.425-11.417-.395-35.736-.364-40,.041-5.611,3.76-11.739,8.118-11.707s8.83,4.792,9.943,10c.735,3.434-3.82,21.242-8.4,34.078a19.867,19.867,0,0,0-1,8.442,25.244,25.244,0,0,1-.077,5.538c-.334,2.288-3.425,11.507-6.282,19.389a.673.673,0,0,1-.518.44,4.958,4.958,0,0,1-3.679-.747Z" transform="translate(-214.141 -125.84)" fill="#0b4870"/>
    <path id="Path_74277" data-name="Path 74277" d="M798.951,567.573a12.377,12.377,0,0,1-.267-5.926c.91-4.572,2.535-13.189,2.633-16.879a3.641,3.641,0,0,0-3.446-3.73l-1.927-.107a5.189,5.189,0,0,1-9.416-.52l-1.81-.1c1.735,4.32.721,9.838-2.842,12.893.506,2.258.912,4.524,1.207,6.36a12.289,12.289,0,0,1-1.072,7.3c-1.882,3.9-3.551,10.219-3.3,12.775,13.463,4.631,23.3-1.708,23.3-1.708l-3.059-10.358Z" transform="translate(-211.554 -106.328)" fill="#ffbe55"/>
    <path id="Path_74278" data-name="Path 74278" d="M795.364,537.993l5.932-.294-1.51-6.557-3.841.262Z" transform="translate(-217.842 -102.871)" fill="#fab9af"/>
    <path id="Path_74279" data-name="Path 74279" d="M796.068,531.4l3.841-.262.472,2.047c-.907.916-2.119,2.935-3.507,2.858a2.213,2.213,0,0,1-1.183-.419l.378-4.224Z" transform="translate(-217.965 -102.871)" fill="#fa968c"/>
    <path id="Path_74280" data-name="Path 74280" d="M793.98,528.926c1.3.071,2.732-.5,4.755-2.079a5.859,5.859,0,0,0,2.138-3.69l.348-6.307-9.711-.536a18,18,0,0,0-.389,6.671c.394,2.523,1.841,5.885,2.859,5.941Z" transform="translate(-216.181 -97.281)" fill="#fab9af"/>
    <path id="Path_74281" data-name="Path 74281" d="M804.333,523.933c-.068,1.23.466,2.261,1.193,2.3s1.617-1.529,1.685-2.759a1.444,1.444,0,0,0-1.439-1.7c-.726-.04-1.371.925-1.439,2.156Z" transform="translate(-221.221 -99.34)" fill="#fab9af"/>
    <path id="Path_74282" data-name="Path 74282" d="M801.137,515.339a3.571,3.571,0,0,0-3.37-3.762l-3.277-.179a5.361,5.361,0,0,1-2.605-.843,2.6,2.6,0,0,0-3.442.445c-.916,1.11-1.371,2.638.713,4.192,1.035.773,2.651.069,3.679.469.065,0,.123-.006.19,0l2.889.159a1.83,1.83,0,0,1,1.7,1.923,1.18,1.18,0,0,0,1.115,1.209l.128.007.544-1.457,1.493,2.263.244-4.424Z" transform="translate(-214.942 -94.94)" fill="#0b4870"/>
    <path id="Path_74283" data-name="Path 74283" d="M727.7,521.267s1.556,3.051.782,3.835-1.437,1.168-2.62.084a11.625,11.625,0,0,1-2.706-4.5,8.913,8.913,0,0,1,.058-4.2c.767-.937,1.263,1.61,1.564,2.832s.762,2.572,1.309,2.261-.2-2.607.3-3.171,1.31,2.853,1.31,2.853Zm28.157,39.319s3.406-.365,3.862.638.578,1.759-.856,2.478a11.624,11.624,0,0,1-5.167.924,8.913,8.913,0,0,1-3.9-1.552c-.6-1.05,1.955-.606,3.2-.451s2.674.206,2.579-.416-2.509-.739-2.854-1.415,3.134-.2,3.134-.2Z" transform="translate(-190.537 -97.271)" fill="#fab9af"/>
    <path id="Path_74284" data-name="Path 74284" d="M793,514.6c.246,1.459-.278,2.22,4.321,4.73s6.146,1.631,7.488,4.134c0,0-.424-4.046-2.956-5.566s-7.007-2.67-8.282-5.937A6.111,6.111,0,0,0,793,514.6Z" transform="translate(-216.943 -95.641)" fill="#0b4870"/>
    <path id="Path_74285" data-name="Path 74285" d="M800.554,545.464c.665.989,1.194,1.894,1.734,2.866s1.033,1.937,1.5,2.931a39.953,39.953,0,0,1,2.317,6.251,21.782,21.782,0,0,1,.789,6.923,13.169,13.169,0,0,1-.762,3.656,9.9,9.9,0,0,1-2,3.3,11.051,11.051,0,0,1-2.974,2.294,15.241,15.241,0,0,1-3.308,1.273,23.17,23.17,0,0,1-3.337.581,30.918,30.918,0,0,1-3.293.11,57.149,57.149,0,0,1-12.646-1.838.714.714,0,0,1,.245-1.4h.008a66.451,66.451,0,0,0,12.3.425,24.29,24.29,0,0,0,5.753-1.108,9.055,9.055,0,0,0,4.3-2.846,7.518,7.518,0,0,0,1.426-4.622,18.029,18.029,0,0,0-.972-5.445,35.279,35.279,0,0,0-2.252-5.419q-.667-1.333-1.408-2.627-.73-1.266-1.53-2.49l-.032-.049a2.492,2.492,0,1,1,4.149-2.761Z" transform="translate(-211.305 -107.851)" fill="#fab9af"/>
    <path id="Path_74286" data-name="Path 74286" d="M791.537,516.069a9.132,9.132,0,0,1-4.816,6.941s2.071-3.565,2.076-5.971S791.909,514.426,791.537,516.069Zm16.041,130.412a.866.866,0,0,0,.073-1.126c-.211-.28-.769-1.045-1.189-1.62a.414.414,0,0,0-.7.057c-1.681,3.07-4.335,5.39-7.642,5.661-1.1.661-1.873,2.249-1.686,2.894a4.284,4.284,0,0,0,3.079-.539c7.014-3.518,8.067-5.327,8.067-5.327Z" transform="translate(-214.584 -96.787)" fill="#0b4870"/>
    <circle id="Ellipse_1045" data-name="Ellipse 1045" cx="21.525" cy="21.525" r="21.525" transform="translate(511.539 382.605)" fill="#ffbe55"/>
    <path id="Path_74287" data-name="Path 74287" d="M712.982,499.582a18.213,18.213,0,1,1,18.213-18.213A18.233,18.233,0,0,1,712.982,499.582Z" transform="translate(-179.917 -77.24)" fill="#ffbe55"/>
    <g id="Group_16496" data-name="Group 16496" transform="translate(526.442 392.507)">
      <path id="Path_74288" data-name="Path 74288" d="M720,473.736l-6.622,10.65L720,487.492l6.622-3.106Z" transform="translate(-713.373 -473.736)" fill="#fff"/>
      <path id="Path_74289" data-name="Path 74289" d="M720,504.6l6.622-10.65L720,498.286l-6.622-4.334Z" transform="translate(-713.373 -481.358)" fill="#fff"/>
    </g>
  </g>
</svg>
